<?xml version="1.0" encoding="UTF-8"?>
<!DOCTYPE svg PUBLIC "-//W3C//DTD SVG 1.1//EN" "http://www.w3.org/Graphics/SVG/1.1/DTD/svg11.dtd">
<!-- Creator: CorelDRAW X7 -->
<svg xmlns="http://www.w3.org/2000/svg" xml:space="preserve" width="67mm" height="100mm" version="1.1" style="shape-rendering:geometricPrecision; text-rendering:geometricPrecision; image-rendering:optimizeQuality; fill-rule:evenodd; clip-rule:evenodd" viewBox="0 0 6700 10000" xmlns:xlink="http://www.w3.org/1999/xlink">
 <defs>
  <style type="text/css">
   <![CDATA[
    .fil0 {fill:#727881}
    .fil1 {fill:#CE112B}
   ]]>
  </style>
 </defs>
 <g id="Layer_x0020_1">
  <metadata id="CorelCorpID_0Corel-Layer"/>
  <g id="_1258574592">
   <g>
    <g>
     <path class="fil0" d="M2489 145c268,-71 562,-105 870,-92l3 3040 -873 0 0 3 873 0 0 -2485 -873 605 0 -1071zm-2455 2948l0 0c315,-1333 1146,-2596 2455,-2948l0 1071 -877 605 0 1275 877 0 0 -3 -2455 0z"/>
     <path class="fil0" d="M6672 3081c-315,1315 -1121,2556 -2390,2930l0 -787c522,-448 852,-1272 920,-2143l-920 0 2390 0zm-2390 2930l0 0c-287,86 -596,126 -923,111l0 -3041 923 0 -920 0 0 2498c349,3 658,-130 920,-355l0 787z"/>
     <path class="fil0" d="M5199 3087c-77,-975 -484,-1892 -1124,-2287l0 1071c448,259 714,741 720,1222l-720 0 0 -6 1124 0zm-1124 -2287l0 0c-213,-133 -453,-207 -716,-204l0 2491 716 0 0 6 -719 0 0 -1423c272,6 516,80 719,201l0 -1071z"/>
     <path class="fil0" d="M3356 3087l-725 0 725 0 0 1417c-275,-6 -522,-80 -725,-197l0 1275 725 0 0 -2495zm-725 0l0 0 -1035 0 0 2495 1035 0 0 -1275c-454,-257 -720,-738 -726,-1220l726 0z"/>
     <g>
      <path class="fil1" d="M1911 3103c0,-19 0,-34 3,-53 0,3 0,6 0,9 0,13 0,28 0,44l-3 0z"/>
      <path class="fil1" d="M1911 3103c0,-71 10,-142 19,-213 -6,55 -9,111 -9,169 0,13 0,28 0,44l-10 0z"/>
      <path class="fil1" d="M1914 3050c0,3 0,6 0,9 0,13 0,28 0,44l16 0c0,-16 0,-31 0,-44 0,-114 12,-225 40,-333 -31,108 -52,216 -56,324z"/>
      <path class="fil1" d="M1930 2890c-6,55 -9,111 -9,169 0,13 0,28 0,44l15 0c0,-16 0,-31 0,-44 0,-182 37,-358 102,-518 -53,114 -87,231 -108,349zm1287 -1204l0 0c47,-7 93,-10 139,-10l0 7c-15,0 -28,0 -43,0 -31,0 -65,0 -96,3z"/>
      <path class="fil1" d="M1970 2726c-28,108 -40,219 -40,333 0,13 0,28 0,44l15 0c0,-16 0,-31 0,-44 0,-284 84,-546 232,-765 -93,133 -164,281 -207,432zm1006 -994l0 0c118,-34 247,-53 380,-56l0 16c-15,-3 -28,-3 -43,-3 -117,0 -228,15 -337,43z"/>
      <path class="fil1" d="M3356 1683c-15,0 -28,0 -43,0 -31,0 -65,0 -96,3 -568,61 -985,416 -1179,855 -65,160 -102,336 -102,518 0,13 0,28 0,44l15 0c0,-16 0,-31 0,-44 0,-753 612,-1361 1362,-1361 15,0 28,0 43,0l0 -15z"/>
      <path class="fil1" d="M3356 1692c-15,-3 -28,-3 -43,-3 -117,0 -228,15 -337,43 -342,96 -617,302 -799,562 -148,219 -232,481 -232,765 0,13 0,28 0,44l16 0c0,-16 0,-31 0,-44 0,-747 605,-1355 1352,-1355 15,0 28,0 43,3l0 -15z"/>
      <path class="fil1" d="M3356 1698c-15,0 -28,0 -43,0 -750,0 -1362,608 -1362,1361 0,13 0,28 0,44l16 0c0,-16 0,-31 0,-44 0,-744 602,-1346 1346,-1346 15,0 28,0 43,0l0 -15z"/>
      <path class="fil1" d="M3356 1707c-15,-3 -28,-3 -43,-3 -747,0 -1352,608 -1352,1355 0,13 0,28 0,44l15 0c0,-16 0,-31 0,-44 0,-740 599,-1339 1337,-1339 15,0 28,0 43,3l0 -16z"/>
      <path class="fil1" d="M3356 1713c-15,0 -28,0 -43,0 -744,0 -1346,602 -1346,1346 0,13 0,28 0,44l15 0c0,-16 0,-31 0,-44 0,-734 596,-1330 1331,-1330 15,0 28,0 43,0l0 -16z"/>
      <path class="fil1" d="M3356 1723c-15,-3 -28,-3 -43,-3 -738,0 -1337,599 -1337,1339 0,13 0,28 0,44l16 0c0,-16 -3,-31 -3,-44 0,-731 592,-1324 1324,-1324 15,0 28,0 43,0l0 -12z"/>
      <path class="fil1" d="M3356 1729c-15,0 -28,0 -43,0 -735,0 -1331,596 -1331,1330 0,13 0,28 0,44l16 0c0,-16 0,-31 0,-44 0,-725 589,-1315 1315,-1315 15,0 28,0 43,0l0 -15z"/>
      <path class="fil1" d="M3356 1735c-15,0 -28,0 -43,0 -732,0 -1324,593 -1324,1324 0,13 3,28 3,44l15 0c0,-16 -3,-31 -3,-44 0,-722 587,-1309 1309,-1309 15,0 28,0 43,0l0 -15z"/>
      <path class="fil1" d="M3356 1744c-15,0 -28,0 -43,0 -726,0 -1315,590 -1315,1315 0,13 0,28 0,44l15 0c0,-16 0,-31 0,-44 0,-719 584,-1299 1300,-1299 15,0 28,0 43,0l0 -16z"/>
      <path class="fil1" d="M3356 1750c-15,0 -28,0 -43,0 -722,0 -1309,587 -1309,1309 0,13 3,28 3,44l16 0c0,-16 -4,-31 -4,-44 0,-713 581,-1293 1294,-1293 15,0 28,0 43,0l0 -16z"/>
      <path class="fil1" d="M3356 1760c-15,0 -28,0 -43,0 -716,0 -1300,580 -1300,1299 0,13 0,28 0,44l16 0c0,-16 0,-31 0,-44 0,-710 574,-1284 1284,-1284 15,0 28,0 43,0l0 -15z"/>
      <path class="fil1" d="M3356 1766c-15,0 -28,0 -43,0 -713,0 -1294,580 -1294,1293 0,13 4,28 4,44l15 0c0,-16 -3,-31 -3,-44 0,-707 574,-1278 1278,-1278 15,0 28,0 43,0l0 -15z"/>
      <path class="fil1" d="M3356 1775c-15,0 -28,0 -43,0 -710,0 -1284,574 -1284,1284 0,13 0,28 0,44l15 0c0,-16 0,-31 0,-44 0,-700 568,-1268 1269,-1268 15,0 28,0 43,0l0 -16z"/>
      <path class="fil1" d="M3356 1781c-15,0 -28,0 -43,0 -704,0 -1278,571 -1278,1278 0,13 3,28 3,44l15 0c0,-16 -3,-31 -3,-44 0,-697 565,-1262 1263,-1262 15,0 31,0 43,0l0 -16z"/>
      <path class="fil1" d="M3356 1791c-15,0 -28,0 -43,0 -701,0 -1269,568 -1269,1268 0,13 0,28 0,44l16 0c0,-16 0,-31 0,-44 0,-691 561,-1253 1253,-1253 15,0 31,0 43,0l0 -15z"/>
      <path class="fil1" d="M3356 1797c-12,0 -28,0 -43,0 -698,0 -1263,565 -1263,1262 0,13 3,28 3,44l16 0c0,-16 -3,-31 -3,-44 0,-688 559,-1247 1247,-1247 15,0 28,0 43,0l0 -15z"/>
      <path class="fil1" d="M3356 1806c-12,0 -28,0 -43,0 -692,0 -1253,562 -1253,1253 0,13 0,28 0,44l15 0c0,-16 0,-31 0,-44 0,-685 556,-1238 1238,-1238 15,0 28,0 43,0l0 -15z"/>
      <path class="fil1" d="M3356 1812c-15,0 -28,0 -43,0 -688,0 -1247,559 -1247,1247 0,13 3,28 3,44l15 0c0,-16 -3,-31 -3,-44 0,-679 553,-1231 1232,-1231 15,0 28,0 43,0l0 -16z"/>
      <path class="fil1" d="M3356 1821c-15,0 -28,0 -43,0 -682,0 -1238,553 -1238,1238 0,13 0,28 0,44l15 0c0,-16 0,-31 0,-44 0,-676 547,-1222 1223,-1222 15,0 28,0 43,0l0 -16z"/>
      <path class="fil1" d="M3356 1828c-15,0 -28,0 -43,0 -679,0 -1232,552 -1232,1231 0,13 3,28 3,44l16 0c-3,-16 -3,-28 -3,-44 0,-673 546,-1216 1216,-1216 15,0 28,0 43,0l0 -15z"/>
      <path class="fil1" d="M3356 1837c-15,0 -28,0 -43,0 -676,0 -1223,546 -1223,1222 0,13 0,28 0,44l16 0c0,-16 0,-28 0,-44 0,-666 540,-1207 1207,-1207 15,0 28,0 43,0l0 -15z"/>
      <path class="fil1" d="M3356 1843c-15,0 -28,0 -43,0 -670,0 -1216,543 -1216,1216 0,16 0,28 3,44l15 0c-3,-16 -3,-31 -3,-44 0,-663 537,-1200 1201,-1200 15,0 28,0 43,0l0 -16z"/>
      <path class="fil1" d="M3356 1852c-15,0 -28,0 -43,0 -667,0 -1207,541 -1207,1207 0,16 0,28 0,44l15 0c0,-16 0,-31 0,-44 0,-657 534,-1191 1192,-1191 15,0 28,0 43,0l0 -16z"/>
      <path class="fil1" d="M3356 1859c-15,0 -28,0 -43,0 -664,0 -1201,537 -1201,1200 0,13 0,28 3,44l16 0c-4,-16 -4,-31 -4,-44 0,-654 531,-1185 1186,-1185 15,0 28,0 43,0l0 -15z"/>
      <path class="fil1" d="M3356 1868c-15,0 -28,0 -43,0 -658,0 -1192,534 -1192,1191 0,13 0,28 0,44l16 0c0,-16 0,-31 0,-44 0,-651 528,-1176 1176,-1176 15,0 31,0 43,0l0 -15z"/>
      <path class="fil1" d="M3356 1874c-15,0 -28,0 -43,0 -655,0 -1186,531 -1186,1185 0,13 0,28 4,44l15 0c-3,-16 -3,-31 -3,-44 0,-645 525,-1170 1170,-1170 15,0 28,0 43,0l0 -15z"/>
      <path class="fil1" d="M3356 1883c-12,0 -28,0 -43,0 -648,0 -1176,525 -1176,1176 0,13 0,28 0,44l15 0c0,-16 0,-28 0,-44 0,-642 519,-1160 1161,-1160 15,0 28,0 43,0l0 -16z"/>
      <path class="fil1" d="M3356 1889c-15,0 -28,0 -43,0 -645,0 -1170,525 -1170,1170 0,13 0,28 3,44l15 0c-3,-16 -3,-28 -3,-44 0,-639 519,-1154 1155,-1154 15,0 31,0 43,0l0 -16z"/>
      <path class="fil1" d="M3356 1899c-15,0 -28,0 -43,0 -642,0 -1161,518 -1161,1160 0,16 0,28 0,44l16 0c0,-16 0,-31 0,-44 0,-632 512,-1145 1145,-1145 15,0 28,0 43,0l0 -15z"/>
      <path class="fil1" d="M3356 1905c-12,0 -28,0 -43,0 -636,0 -1155,515 -1155,1154 0,16 0,28 3,44l16 0c-3,-16 -3,-28 -3,-44 0,-629 509,-1139 1139,-1139 15,0 28,0 43,0l0 -15z"/>
      <path class="fil1" d="M3356 1914c-15,0 -28,0 -43,0 -633,0 -1145,513 -1145,1145 0,13 0,28 0,44l15 0c0,-16 0,-28 0,-44 0,-623 506,-1129 1130,-1129 15,0 28,0 43,0l0 -16z"/>
      <path class="fil1" d="M3356 1920c-15,0 -28,0 -43,0 -630,0 -1139,510 -1139,1139 0,16 0,28 3,44l15 0c-3,-16 -3,-28 -3,-44 0,-620 503,-1123 1124,-1123 15,0 31,0 43,0l0 -16z"/>
      <path class="fil1" d="M3356 1930c-15,0 -28,0 -43,0 -624,0 -1130,506 -1130,1129 0,16 0,28 0,44l15 0c0,-16 0,-28 0,-44 0,-617 501,-1114 1115,-1114 15,0 28,0 43,0l0 -15z"/>
      <path class="fil1" d="M3356 1936c-12,0 -28,0 -43,0 -621,0 -1124,503 -1124,1123 0,16 0,28 3,44l16 0c-3,-16 -3,-28 -3,-44 0,-611 497,-1108 1108,-1108 15,0 31,0 43,0l0 -15z"/>
      <path class="fil1" d="M3356 1945c-15,0 -28,0 -43,0 -614,0 -1115,497 -1115,1114 0,16 0,28 0,44l16 0c0,-16 0,-28 0,-44 0,-608 491,-1099 1099,-1099 15,0 28,0 43,0l0 -15z"/>
      <path class="fil1" d="M3356 1951c-12,0 -28,0 -43,0 -611,0 -1108,497 -1108,1108 0,16 0,28 3,44l15 0c-3,-16 -3,-28 -3,-44 0,-605 491,-1092 1093,-1092 15,0 31,0 43,0l0 -16z"/>
      <path class="fil1" d="M3356 1960c-15,0 -28,0 -43,0 -608,0 -1099,491 -1099,1099 0,16 0,28 0,44l15 0c0,-16 0,-28 0,-44 0,-598 485,-1086 1084,-1086 15,0 31,3 43,3l0 -16z"/>
      <path class="fil1" d="M3356 1967c-12,0 -28,0 -43,0 -602,0 -1093,487 -1093,1092 0,16 0,28 3,44l16 0c-3,-16 -3,-28 -3,-44 0,-595 481,-1077 1077,-1077 15,0 31,0 43,0l0 -15z"/>
      <path class="fil1" d="M3356 1976c-12,0 -28,-3 -43,-3 -599,0 -1084,488 -1084,1086 0,16 0,28 0,44l16 0c0,-16 0,-28 0,-44 0,-589 478,-1071 1068,-1071 15,0 31,3 43,3l0 -15z"/>
      <path class="fil1" d="M3356 1982c-12,0 -28,0 -43,0 -596,0 -1077,482 -1077,1077 0,16 0,28 3,44l15 0c-3,-16 -3,-28 -3,-44 0,-586 475,-1062 1062,-1062 15,0 31,0 43,0l0 -15z"/>
      <path class="fil1" d="M3356 1991c-12,0 -28,-3 -43,-3 -590,0 -1068,482 -1068,1071 0,16 0,28 0,44l15 0c0,-16 0,-28 0,-44 0,-583 473,-1055 1053,-1055 15,0 31,3 43,3l0 -16z"/>
      <path class="fil1" d="M3356 1997c-12,0 -28,0 -43,0 -587,0 -1062,476 -1062,1062 0,16 0,28 3,44l15 0c-3,-16 -3,-28 -3,-44 0,-577 470,-1046 1047,-1046 15,0 31,0 43,0l0 -16z"/>
      <path class="fil1" d="M3356 2007c-12,0 -28,-3 -43,-3 -580,0 -1053,472 -1053,1055 0,16 0,28 0,44l16 0c0,-16 0,-28 0,-44 0,-574 463,-1040 1037,-1040 15,0 31,3 43,3l0 -15z"/>
      <path class="fil1" d="M3356 2013c-12,0 -28,0 -43,0 -577,0 -1047,469 -1047,1046 0,16 0,28 3,44l16 0c-3,-16 -3,-28 -3,-44 0,-571 463,-1031 1031,-1031 15,0 31,0 43,0l0 -15z"/>
      <path class="fil1" d="M3356 2022c-12,0 -28,-3 -43,-3 -574,0 -1037,466 -1037,1040 0,16 0,28 0,44l15 0c0,-16 0,-28 0,-44 0,-565 457,-1025 1022,-1025 15,0 31,4 43,4l0 -16z"/>
      <path class="fil1" d="M3356 2028c-12,0 -28,0 -43,0 -568,0 -1031,460 -1031,1031 0,16 0,28 3,44l12 0c0,-16 0,-28 0,-44 0,-561 454,-1015 1016,-1015 15,0 31,0 43,0l0 -16z"/>
      <path class="fil1" d="M3356 2038c-12,0 -28,-4 -43,-4 -565,0 -1022,460 -1022,1025 0,16 0,28 0,44l16 0c0,-16 0,-28 0,-44 0,-555 450,-1009 1006,-1009 15,0 31,3 43,3l0 -15z"/>
      <path class="fil1" d="M3356 2044c-12,0 -28,0 -43,0 -562,0 -1016,454 -1016,1015 0,16 0,28 0,44l16 0c0,-16 0,-28 0,-44 0,-552 447,-1000 1000,-1000 15,0 31,0 43,0l0 -15z"/>
      <path class="fil1" d="M3356 2053c-12,0 -28,-3 -43,-3 -556,0 -1006,454 -1006,1009 0,16 0,28 0,44l15 0c0,-16 0,-28 0,-44 0,-549 445,-994 991,-994 15,0 31,3 43,3l0 -15z"/>
      <path class="fil1" d="M3356 2059c-12,0 -28,0 -43,0 -553,0 -1000,448 -1000,1000 0,16 0,28 0,44l15 0c0,-16 0,-28 0,-44 0,-543 442,-984 985,-984 15,0 31,0 43,0l0 -16z"/>
      <path class="fil1" d="M3356 2068c-12,0 -28,-3 -43,-3 -546,0 -991,445 -991,994 0,16 0,28 0,44l15 0c0,-16 0,-28 0,-44 0,-540 436,-978 976,-978 15,0 31,0 43,3l0 -16z"/>
      <path class="fil1" d="M3356 2075c-12,0 -28,0 -43,0 -543,0 -985,441 -985,984 0,16 0,28 0,44l16 0c0,-16 0,-28 0,-44 0,-537 435,-969 969,-969 15,0 31,0 43,0l0 -15z"/>
      <path class="fil1" d="M3356 2084c-12,0 -28,-3 -43,-3 -540,0 -976,438 -976,978 0,16 0,28 0,44l16 0c0,-16 0,-28 0,-44 0,-531 429,-963 960,-963 15,0 31,0 43,3l0 -15z"/>
      <path class="fil1" d="M3356 2090c-12,0 -28,0 -43,0 -534,0 -969,432 -969,969 0,16 0,28 0,44l15 0c0,-16 0,-28 0,-44 0,-527 426,-954 954,-954 15,0 31,0 43,0l0 -15z"/>
      <path class="fil1" d="M3356 2099c-12,-3 -28,-3 -43,-3 -531,0 -960,432 -960,963 0,16 0,28 0,44l15 0c0,-16 0,-28 0,-44 0,-521 423,-947 945,-947 15,0 31,0 43,3l0 -16z"/>
      <path class="fil1" d="M3356 2105c-12,0 -28,0 -43,0 -528,0 -954,427 -954,954 0,16 0,28 0,44l15 0c0,-16 0,-28 0,-44 0,-518 420,-938 939,-938 15,0 31,0 43,0l0 -16z"/>
      <path class="fil1" d="M3356 2115c-12,-3 -28,-3 -43,-3 -522,0 -945,426 -945,947 0,16 0,28 0,44l16 0c0,-16 0,-28 0,-44 0,-515 416,-932 929,-932 15,0 31,0 43,3l0 -15z"/>
      <path class="fil1" d="M3356 2121c-12,0 -28,0 -43,0 -519,0 -939,420 -939,938 0,16 0,28 0,44l16 0c0,-16 0,-28 0,-44 0,-509 414,-923 923,-923 15,0 31,0 43,0l0 -15z"/>
      <path class="fil1" d="M3356 2130c-12,-3 -28,-3 -43,-3 -513,0 -929,417 -929,932 0,16 0,28 0,44l15 0c0,-16 0,-28 0,-44 0,-506 408,-916 914,-916 15,0 31,0 43,3l0 -16z"/>
      <path class="fil1" d="M3356 2136c-12,0 -28,0 -43,0 -509,0 -923,414 -923,923 0,16 0,28 0,44l15 0c0,-16 0,-28 0,-44 0,-503 408,-907 908,-907 15,0 31,0 43,0l0 -16z"/>
      <path class="fil1" d="M3356 2146c-12,-3 -28,-3 -43,-3 -506,0 -914,410 -914,916 0,16 0,28 0,44l16 0c0,-16 0,-28 0,-44 0,-497 401,-901 898,-901 15,0 31,0 43,3l0 -15z"/>
      <path class="fil1" d="M3356 2152c-12,0 -28,0 -43,0 -500,0 -908,404 -908,907 0,16 0,28 0,44l16 0c0,-16 0,-28 0,-44 0,-494 398,-892 892,-892 15,0 31,0 43,0l0 -15z"/>
      <path class="fil1" d="M3356 2161c-12,-3 -28,-3 -43,-3 -497,0 -898,404 -898,901 0,16 0,28 0,44l15 0c0,-16 0,-28 0,-44 0,-487 395,-886 883,-886 15,0 31,0 43,4l0 -16z"/>
      <path class="fil1" d="M3356 2167c-12,0 -28,0 -43,0 -494,0 -892,398 -892,892 0,16 0,28 0,44l15 0c0,-16 0,-28 0,-44 0,-484 392,-876 877,-876 15,0 31,0 43,0l0 -16z"/>
      <path class="fil1" d="M3356 2177c-12,-4 -28,-4 -43,-4 -488,0 -883,399 -883,886 0,16 0,28 0,44l15 0c0,-16 0,-28 0,-44 0,-481 389,-870 868,-870 15,0 31,0 43,3l0 -15z"/>
      <path class="fil1" d="M3356 2183c-12,0 -28,0 -43,0 -485,0 -877,392 -877,876 0,16 0,28 0,44l16 0c0,-16 0,-28 0,-44 0,-475 386,-861 861,-861 15,0 31,0 43,0l0 -15z"/>
      <path class="fil1" d="M3356 2192c-12,-3 -28,-3 -43,-3 -479,0 -868,389 -868,870 0,16 0,28 0,44l16 0c0,-16 0,-28 0,-44 0,-472 380,-855 852,-855 15,0 31,0 43,3l0 -15z"/>
      <path class="fil1" d="M3356 2198c-12,0 -28,0 -43,0 -475,0 -861,386 -861,861 0,16 0,28 0,44l15 0c0,-16 0,-28 0,-44 0,-469 380,-845 846,-845 15,0 31,0 43,0l0 -16z"/>
      <path class="fil1" d="M3356 2207c-12,-3 -28,-3 -43,-3 -472,0 -852,383 -852,855 0,16 0,28 0,44l15 0c0,-16 -3,-28 -3,-44 0,-463 377,-839 840,-839 15,0 31,0 43,3l0 -16z"/>
      <path class="fil1" d="M3356 2214c-12,0 -28,0 -43,0 -466,0 -846,376 -846,845 0,16 0,28 0,44l16 0c0,-16 0,-28 0,-44 0,-460 370,-830 830,-830 15,0 31,0 43,0l0 -15z"/>
      <path class="fil1" d="M3356 2223c-12,-3 -28,-3 -43,-3 -463,0 -840,376 -840,839 0,16 3,28 3,44l16 0c0,-16 -3,-28 -3,-44 0,-453 370,-824 824,-824 15,0 31,0 43,3l0 -15z"/>
      <path class="fil1" d="M3356 2229c-12,0 -28,0 -43,0 -460,0 -830,370 -830,830 0,16 0,28 0,44l15 0c0,-16 0,-28 0,-44 0,-450 364,-815 815,-815 15,0 31,0 43,0l0 -15z"/>
      <path class="fil1" d="M3356 2238c-12,-3 -28,-3 -43,-3 -454,0 -824,371 -824,824 0,16 3,28 3,44l15 0c0,-16 -3,-28 -3,-44 0,-447 364,-808 809,-808 15,0 31,0 43,3l0 -16z"/>
      <path class="fil1" d="M3356 2244c-12,0 -28,0 -43,0 -451,0 -815,365 -815,815 0,16 0,28 0,44l15 0c0,-16 0,-28 0,-44 0,-441 358,-799 800,-799 15,0 31,0 43,0l0 -16z"/>
      <path class="fil1" d="M3356 2254c-12,-3 -28,-3 -43,-3 -445,0 -809,361 -809,808 0,16 3,28 3,44l16 0c0,-16 -3,-28 -3,-44 0,-438 355,-793 793,-793 15,0 31,0 43,3l0 -15z"/>
      <path class="fil1" d="M3356 2260c-12,0 -28,0 -43,0 -442,0 -800,358 -800,799 0,16 0,28 0,44l16 0c0,-16 0,-28 0,-44 0,-435 352,-784 784,-784 15,0 31,0 43,0l0 -15z"/>
      <path class="fil1" d="M3356 2269c-12,-3 -28,-3 -43,-3 -438,0 -793,355 -793,793 0,16 3,28 3,44l15 0c0,-16 -3,-28 -3,-44 0,-429 349,-778 778,-778 15,0 31,0 43,4l0 -16z"/>
      <path class="fil1" d="M3356 2275c-12,0 -28,0 -43,0 -432,0 -784,349 -784,784 0,16 0,28 0,44l15 0c0,-16 0,-28 0,-44 0,-426 346,-768 769,-768 15,0 31,0 43,0l0 -16z"/>
      <path class="fil1" d="M3356 2285c-12,-4 -28,-4 -43,-4 -429,0 -778,349 -778,778 0,16 3,28 3,44l16 0c0,-16 -4,-28 -4,-44 0,-419 343,-762 763,-762 15,0 31,0 43,3l0 -15z"/>
      <path class="fil1" d="M3356 2291c-12,0 -28,0 -43,0 -423,0 -769,342 -769,768 0,16 0,28 0,44l16 0c0,-16 0,-28 0,-44 0,-416 336,-753 753,-753 15,0 31,0 43,0l0 -15z"/>
      <path class="fil1" d="M3356 2300c-12,-3 -28,-3 -43,-3 -420,0 -763,343 -763,762 0,16 4,28 4,44l15 0c0,-16 -3,-28 -3,-44 0,-413 336,-747 747,-747 15,0 31,0 43,3l0 -15z"/>
      <path class="fil1" d="M3356 2306c-12,0 -28,0 -43,0 -417,0 -753,337 -753,753 0,16 0,28 0,44l15 0c0,-16 0,-28 0,-44 0,-407 330,-737 738,-737 15,0 31,0 43,0l0 -16z"/>
      <path class="fil1" d="M3356 2315c-12,-3 -28,-3 -43,-3 -411,0 -747,334 -747,747 0,16 3,28 3,44l15 0c0,-16 -3,-28 -3,-44 0,-404 328,-731 732,-731 15,0 31,0 43,3l0 -16z"/>
      <path class="fil1" d="M3356 2322c-12,0 -28,0 -43,0 -408,0 -738,330 -738,737 0,16 0,28 0,44l16 0c0,-16 0,-28 0,-44 0,-398 324,-722 722,-722 15,0 31,0 43,0l0 -15z"/>
      <path class="fil1" d="M3356 2331c-12,-3 -28,-3 -43,-3 -404,0 -732,327 -732,731 0,16 3,28 3,44l16 0c0,-16 -3,-28 -3,-44 0,-395 321,-716 716,-716 15,0 31,0 43,3l0 -15z"/>
      <path class="fil1" d="M3356 2337c-12,0 -28,0 -43,0 -398,0 -722,324 -722,722 0,16 0,28 0,44l15 0c0,-16 0,-28 0,-44 0,-392 318,-707 707,-707 15,0 31,0 43,0l0 -15z"/>
      <path class="fil1" d="M3356 2346c-12,-3 -28,-3 -43,-3 -395,0 -716,321 -716,716 0,16 3,28 3,44l15 0c0,-16 -3,-28 -3,-44 0,-385 315,-700 701,-700 15,0 31,0 43,3l0 -16z"/>
      <path class="fil1" d="M3356 2352c-12,0 -28,0 -43,0 -389,0 -707,315 -707,707 0,16 0,28 0,44l15 0c0,-16 0,-28 0,-44 0,-382 309,-691 692,-691 15,0 31,0 43,0l0 -16z"/>
      <path class="fil1" d="M3356 2362c-12,-3 -28,-3 -43,-3 -386,0 -701,315 -701,700 0,16 3,28 3,44l16 0c-3,-16 -3,-28 -3,-44 0,-379 308,-685 685,-685 15,0 31,0 43,3l0 -15z"/>
      <path class="fil1" d="M3356 2368c-12,0 -28,0 -43,0 -383,0 -692,309 -692,691 0,16 0,28 0,44l16 0c0,-16 0,-28 0,-44 0,-373 302,-676 676,-676 15,0 31,0 43,0l0 -15z"/>
      <path class="fil1" d="M3356 2377c-12,-3 -28,-3 -43,-3 -377,0 -685,306 -685,685 0,16 0,28 3,44l15 0c-3,-16 -3,-28 -3,-44 0,-370 299,-669 670,-669 15,0 31,0 43,3l0 -16z"/>
      <path class="fil1" d="M3356 2383c-12,0 -28,0 -43,0 -374,0 -676,303 -676,676 0,16 0,28 0,44l15 0c0,-16 0,-28 0,-44 0,-364 297,-660 661,-660 15,0 31,0 43,0l0 -16z"/>
      <path class="fil1" d="M3356 2393c-12,-3 -28,-3 -43,-3 -371,0 -670,299 -670,669 0,16 0,28 3,44l16 0c-4,-16 -4,-28 -4,-44 0,-361 294,-654 655,-654 15,0 31,0 43,3l0 -15z"/>
      <path class="fil1" d="M3356 2399c-12,0 -28,0 -43,0 -364,0 -661,296 -661,660 0,16 0,28 0,44l16 0c0,-16 0,-28 0,-44 0,-358 290,-645 645,-645 15,0 31,0 43,0l0 -15z"/>
      <path class="fil1" d="M3356 2408c-12,-3 -28,-3 -43,-3 -361,0 -655,293 -655,654 0,16 0,28 4,44l15 0c-3,-16 -3,-28 -3,-44 0,-352 287,-639 639,-639 15,0 31,0 43,3l0 -15z"/>
      <path class="fil1" d="M3356 2414c-12,0 -28,0 -43,0 -355,0 -645,287 -645,645 0,16 0,28 0,44l15 0c0,-16 0,-28 0,-44 0,-348 281,-629 630,-629 15,0 31,0 43,0l0 -16z"/>
      <path class="fil1" d="M3356 2423c-12,-3 -28,-3 -43,-3 -352,0 -639,287 -639,639 0,16 0,28 3,44l15 0c-3,-16 -3,-28 -3,-44 0,-345 281,-623 624,-623 15,0 31,0 43,3l0 -16z"/>
      <path class="fil1" d="M3356 2430c-12,0 -28,0 -43,0 -349,0 -630,281 -630,629 0,16 0,28 0,44l16 0c0,-16 0,-28 0,-44 0,-339 274,-614 614,-614 15,0 31,0 43,0l0 -15z"/>
      <path class="fil1" d="M3356 2439c-12,-3 -28,-3 -43,-3 -343,0 -624,278 -624,623 0,16 0,28 3,44l16 0c-3,-16 -3,-28 -3,-44 0,-336 271,-608 608,-608 15,0 31,0 43,3l0 -15z"/>
      <path class="fil1" d="M3356 2445c-12,0 -28,0 -43,0 -340,0 -614,275 -614,614 0,16 0,28 0,44l15 0c0,-16 0,-28 0,-44 0,-330 269,-602 599,-602 15,0 31,4 43,4l0 -16z"/>
      <path class="fil1" d="M3356 2454c-12,-3 -28,-3 -43,-3 -337,0 -608,272 -608,608 0,16 0,28 3,44l15 0c-3,-16 -3,-28 -3,-44 0,-327 266,-592 593,-592 15,0 31,0 43,3l0 -16z"/>
      <path class="fil1" d="M3356 2461c-12,0 -28,-4 -43,-4 -330,0 -599,272 -599,602 0,16 0,28 0,44l15 0c0,-16 0,-28 0,-44 0,-324 263,-586 584,-586 15,0 31,3 43,3l0 -15z"/>
      <path class="fil1" d="M3356 2470c-12,-3 -28,-3 -43,-3 -327,0 -593,265 -593,592 0,16 0,28 3,44l16 0c-3,-16 -3,-28 -3,-44 0,-318 259,-577 577,-577 15,0 31,0 43,0l0 -12z"/>
      <path class="fil1" d="M3356 2476c-12,0 -28,-3 -43,-3 -321,0 -584,262 -584,586 0,16 0,28 0,44l16 0c0,-16 0,-28 0,-44 0,-314 253,-571 568,-571 15,0 31,3 43,3l0 -15z"/>
      <path class="fil1" d="M3356 2482c-12,0 -28,0 -43,0 -318,0 -577,259 -577,577 0,16 0,28 3,44l15 0c-3,-16 -3,-28 -3,-44 0,-311 253,-561 562,-561 15,0 31,0 43,0l0 -16z"/>
      <path class="fil1" d="M3356 2491c-12,0 -28,-3 -43,-3 -315,0 -568,257 -568,571 0,16 0,28 0,44l15 0c0,-16 0,-28 0,-44 0,-305 247,-555 553,-555 15,0 31,3 43,3l0 -16z"/>
      <path class="fil1" d="M3356 2498c-12,0 -28,0 -43,0 -309,0 -562,250 -562,561 0,16 0,28 3,44l16 0c-3,-16 -3,-28 -3,-44 0,-302 243,-546 546,-546 15,0 31,0 43,0l0 -15z"/>
      <path class="fil1" d="M3356 2507c-12,0 -28,-3 -43,-3 -306,0 -553,250 -553,555 0,16 0,28 0,44l16 0c0,-16 0,-28 0,-44 0,-296 241,-540 537,-540 15,0 31,3 43,3l0 -15z"/>
      <path class="fil1" d="M3356 2513c-12,0 -28,0 -43,0 -303,0 -546,244 -546,546 0,16 0,28 3,44l15 0c-3,-16 -3,-28 -3,-44 0,-293 238,-531 531,-531 15,0 31,0 43,0l0 -15z"/>
      <path class="fil1" d="M3356 2522c-12,0 -28,-3 -43,-3 -296,0 -537,244 -537,540 0,16 0,28 0,44l15 0c0,-16 0,-28 0,-44 0,-290 235,-524 522,-524 15,0 31,3 43,3l0 -16z"/>
      <path class="fil1" d="M3356 2528c-12,0 -28,0 -43,0 -293,0 -531,238 -531,531 0,16 0,28 3,44l15 0c-3,-16 -3,-28 -3,-44 0,-284 232,-515 516,-515 15,0 31,0 43,3l0 -19z"/>
      <path class="fil1" d="M3356 2538c-12,0 -28,-3 -43,-3 -287,0 -522,234 -522,524 0,16 0,28 0,44l16 0c0,-16 0,-28 0,-44 0,-280 225,-509 506,-509 15,0 31,3 43,3l0 -15z"/>
      <path class="fil1" d="M3356 2547c-12,-3 -28,-3 -43,-3 -284,0 -516,231 -516,515 0,16 0,28 3,44l16 0c-3,-16 -3,-28 -3,-44 0,-277 225,-500 500,-500 15,0 31,0 43,3l0 -15z"/>
      <path class="fil1" d="M3356 2553c-12,0 -28,-3 -43,-3 -281,0 -506,229 -506,509 0,16 0,28 0,44l15 0c0,-16 0,-28 0,-44 0,-271 219,-494 491,-494 15,0 31,4 43,4l0 -16z"/>
      <path class="fil1" d="M3356 2562c-12,-3 -28,-3 -43,-3 -275,0 -500,223 -500,500 0,16 0,28 3,44l15 0c-3,-16 -3,-28 -3,-44 0,-268 216,-484 485,-484 15,0 31,0 43,0l0 -13z"/>
      <path class="fil1" d="M3356 2569c-12,0 -28,-4 -43,-4 -272,0 -491,223 -491,494 0,16 0,28 0,44l16 0c0,-16 0,-28 0,-44 0,-262 213,-478 475,-478 15,0 31,3 43,3l0 -15z"/>
      <path class="fil1" d="M3356 2578c-12,-3 -28,-3 -43,-3 -269,0 -485,216 -485,484 0,16 0,28 3,44l16 0c-3,-16 -3,-28 -3,-44 0,-259 210,-469 469,-469 15,0 31,0 43,3l0 -15z"/>
      <path class="fil1" d="M3356 2584c-12,0 -28,-3 -43,-3 -262,0 -475,216 -475,478 0,16 0,28 0,44l15 0c0,-16 0,-28 0,-44 0,-256 207,-463 460,-463 15,0 31,3 43,3l0 -15z"/>
      <path class="fil1" d="M3356 2593c-12,-3 -28,-3 -43,-3 -259,0 -469,210 -469,469 0,16 0,28 3,44l15 0c-3,-16 -3,-28 -3,-44 0,-250 204,-453 454,-453 15,0 31,0 43,3l0 -16z"/>
      <path class="fil1" d="M3356 2599c-12,0 -28,-3 -43,-3 -253,0 -460,207 -460,463 0,16 0,28 0,44l15 0c0,-16 0,-28 0,-44 0,-247 198,-447 445,-447 15,0 31,3 43,3l0 -16z"/>
      <path class="fil1" d="M3356 2609c-12,-3 -28,-3 -43,-3 -250,0 -454,203 -454,453 0,16 0,28 3,44l16 0c-3,-16 -3,-28 -3,-44 0,-243 197,-438 438,-438 15,0 31,0 43,3l0 -15z"/>
      <path class="fil1" d="M3356 2615c-12,0 -28,-3 -43,-3 -247,0 -445,200 -445,447 0,16 0,28 0,44l16 0c0,-16 0,-28 0,-44 0,-237 191,-432 429,-432 15,0 31,3 43,3l0 -15z"/>
      <path class="fil1" d="M3356 2624c-12,-3 -28,-3 -43,-3 -241,0 -438,195 -438,438 0,16 0,28 3,44l15 0c-3,-16 -3,-28 -3,-44 0,-234 188,-423 423,-423 15,0 31,0 43,4l0 -16z"/>
      <path class="fil1" d="M3356 2630c-12,0 -28,-3 -43,-3 -238,0 -429,195 -429,432 0,16 0,28 0,44l15 0c0,-16 0,-28 0,-44 0,-228 186,-416 414,-416 15,0 31,3 43,3l0 -16z"/>
      <path class="fil1" d="M3356 2640c-12,-4 -28,-4 -43,-4 -235,0 -423,189 -423,423 0,16 0,28 3,44l16 0c-4,-16 -4,-28 -4,-44 0,-225 183,-407 408,-407 15,0 31,0 43,3l0 -15z"/>
      <path class="fil1" d="M3356 2646c-12,0 -28,-3 -43,-3 -228,0 -414,188 -414,416 0,16 0,28 0,44l16 0c0,-16 0,-28 0,-44 0,-222 179,-401 398,-401 15,0 31,3 43,3l0 -15z"/>
      <path class="fil1" d="M3356 2655c-12,-3 -28,-3 -43,-3 -225,0 -408,182 -408,407 0,16 0,28 4,44l15 0c-3,-16 -3,-28 -3,-44 0,-216 176,-392 392,-392 15,0 31,0 43,3l0 -15z"/>
      <path class="fil1" d="M3356 2661c-12,0 -28,-3 -43,-3 -219,0 -398,179 -398,401 0,16 0,28 0,44l15 0c0,-16 0,-28 0,-44 0,-213 170,-385 383,-385 15,0 31,3 43,3l0 -16z"/>
      <path class="fil1" d="M3356 2670c-12,-3 -28,-3 -43,-3 -216,0 -392,176 -392,392 0,16 0,28 3,44l15 0c-3,-16 -3,-28 -3,-44 0,-209 170,-376 377,-376 15,0 31,0 43,3l0 -16z"/>
      <path class="fil1" d="M3356 2677c-12,0 -28,-3 -43,-3 -213,0 -383,172 -383,385 0,16 0,28 0,44l16 0c0,-16 0,-28 0,-44 0,-203 163,-370 367,-370 15,0 31,3 43,3l0 -15z"/>
      <path class="fil1" d="M3356 2686c-12,-3 -28,-3 -43,-3 -207,0 -377,167 -377,376 0,16 0,28 3,44l16 0c-3,-16 -3,-28 -3,-44 0,-200 160,-361 361,-361 15,0 31,0 43,3l0 -15z"/>
      <path class="fil1" d="M3356 2692c-12,0 -28,-3 -43,-3 -204,0 -367,167 -367,370 0,16 0,28 0,44l15 0c0,-16 -3,-28 -3,-44 0,-194 160,-355 355,-355 15,0 31,3 43,3l0 -15z"/>
      <path class="fil1" d="M3356 2701c-12,-3 -28,-3 -43,-3 -201,0 -361,161 -361,361 0,16 0,28 3,44l15 0c-3,-16 -3,-28 -3,-44 0,-191 155,-345 346,-345 15,0 31,0 43,3l0 -16z"/>
      <path class="fil1" d="M3356 2707c-12,0 -28,-3 -43,-3 -195,0 -355,161 -355,355 0,16 3,28 3,44l15 0c0,-16 -3,-28 -3,-44 0,-188 155,-339 340,-339 15,0 31,3 43,3l0 -16z"/>
      <path class="fil1" d="M3356 2717c-12,-3 -28,-3 -43,-3 -191,0 -346,154 -346,345 0,16 0,28 3,44l16 0c-3,-16 -3,-28 -3,-44 0,-182 148,-330 330,-330 15,0 31,0 43,3l0 -15z"/>
      <path class="fil1" d="M3356 2723c-12,0 -28,-3 -43,-3 -185,0 -340,151 -340,339 0,16 3,28 3,44l16 0c0,-16 -3,-28 -3,-44 0,-179 145,-324 324,-324 15,0 31,3 43,3l0 -15z"/>
      <path class="fil1" d="M3356 2732c-12,-3 -28,-3 -43,-3 -182,0 -330,148 -330,330 0,16 0,28 3,44l15 0c-3,-16 -3,-28 -3,-44 0,-176 142,-314 315,-314 15,0 31,0 43,3l0 -16z"/>
      <path class="fil1" d="M3356 2738c-12,0 -28,-3 -43,-3 -179,0 -324,145 -324,324 0,16 3,28 3,44l15 0c0,-16 -3,-28 -3,-44 0,-169 139,-308 309,-308 15,0 31,3 43,3l0 -16z"/>
      <path class="fil1" d="M3356 2748c-12,-3 -28,-3 -43,-3 -173,0 -315,138 -315,314 0,16 0,28 3,44l16 0c-4,-16 -4,-28 -4,-44 0,-166 133,-299 300,-299 15,0 31,0 43,3l0 -15z"/>
      <path class="fil1" d="M3356 2754c-12,0 -28,-3 -43,-3 -170,0 -309,139 -309,308 0,16 3,28 3,44l16 0c0,-16 -3,-28 -3,-44 0,-160 132,-293 293,-293 15,0 31,3 43,3l0 -15z"/>
      <path class="fil1" d="M3356 2763c-12,-3 -28,-3 -43,-3 -167,0 -300,133 -300,299 0,16 0,28 4,44l15 0c-3,-16 -3,-28 -3,-44 0,-157 127,-284 284,-284 15,0 31,0 43,4l0 -16z"/>
      <path class="fil1" d="M3356 2769c-12,0 -28,-3 -43,-3 -161,0 -293,133 -293,293 0,16 3,28 3,44l15 0c0,-16 -3,-28 -3,-44 0,-154 127,-277 278,-277 15,0 31,3 43,3l0 -16z"/>
      <path class="fil1" d="M3356 2779c-12,-4 -28,-4 -43,-4 -157,0 -284,127 -284,284 0,16 0,28 3,44l15 0c-3,-16 -3,-28 -3,-44 0,-148 121,-268 269,-268 15,0 31,0 43,3l0 -15z"/>
      <path class="fil1" d="M3356 2785c-12,0 -28,-3 -43,-3 -151,0 -278,123 -278,277 0,16 3,28 3,44l19 0c-3,-16 -6,-28 -6,-44 0,-145 117,-262 262,-262 15,0 31,3 43,3l0 -15z"/>
      <path class="fil1" d="M3356 2794c-12,-3 -28,-3 -43,-3 -148,0 -269,120 -269,268 0,16 0,28 3,44l16 0c-3,-16 -3,-28 -3,-44 0,-142 114,-253 253,-253 15,0 31,0 43,3l0 -15z"/>
      <path class="fil1" d="M3356 2800c-12,0 -28,-3 -43,-3 -145,0 -262,117 -262,262 0,16 3,28 6,44l15 0c-3,-16 -6,-28 -6,-44 0,-135 111,-247 247,-247 15,0 31,4 43,4l0 -16z"/>
      <path class="fil1" d="M3356 2809c-12,-3 -28,-3 -43,-3 -139,0 -253,111 -253,253 0,16 0,28 3,44l15 0c-3,-16 -3,-28 -3,-44 0,-132 105,-237 238,-237 15,0 31,0 43,3l0 -16z"/>
      <path class="fil1" d="M3356 2816c-12,0 -28,-4 -43,-4 -136,0 -247,112 -247,247 0,16 3,28 6,44l16 0c-3,-16 -7,-28 -7,-44 0,-126 105,-231 232,-231 15,0 31,3 43,3l0 -15z"/>
      <path class="fil1" d="M3356 2825c-12,-3 -28,-3 -43,-3 -133,0 -238,105 -238,237 0,16 0,28 3,44l16 0c-3,-16 -3,-28 -3,-44 0,-123 98,-222 222,-222 15,0 31,0 43,3l0 -15z"/>
      <path class="fil1" d="M3356 2831c-12,0 -28,-3 -43,-3 -127,0 -232,105 -232,231 0,16 4,28 7,44l15 0c-3,-16 -6,-28 -6,-44 0,-120 99,-216 216,-216 15,0 31,3 43,7l0 -19z"/>
      <path class="fil1" d="M3356 2840c-12,-3 -28,-3 -43,-3 -124,0 -222,99 -222,222 0,16 0,28 3,44l15 0c-3,-16 -3,-28 -3,-44 0,-114 93,-206 207,-206 15,0 31,0 43,3l0 -16z"/>
      <path class="fil1" d="M3356 2850c-12,-4 -28,-7 -43,-7 -117,0 -216,96 -216,216 0,16 3,28 6,44l15 0c-3,-16 -6,-28 -6,-44 0,-111 90,-200 201,-200 15,0 31,3 43,6l0 -15z"/>
      <path class="fil1" d="M3356 2856c-12,-3 -28,-3 -43,-3 -114,0 -207,92 -207,206 0,16 0,28 3,44l16 0c-3,-16 -3,-28 -3,-44 0,-108 86,-191 191,-191 15,0 31,0 43,3l0 -15z"/>
      <path class="fil1" d="M3356 2865c-12,-3 -28,-6 -43,-6 -111,0 -201,89 -201,200 0,16 3,28 6,44l16 0c-3,-16 -6,-28 -6,-44 0,-101 83,-185 185,-185 15,0 31,3 43,6l0 -15z"/>
      <path class="fil1" d="M3356 2871c-12,-3 -28,-3 -43,-3 -105,0 -191,83 -191,191 0,16 0,28 3,44l15 0c-3,-16 -3,-28 -3,-44 0,-98 77,-176 176,-176 15,0 31,0 43,4l0 -16z"/>
      <path class="fil1" d="M3356 2880c-12,-3 -28,-6 -43,-6 -102,0 -185,84 -185,185 0,16 3,28 6,44l15 0c-3,-16 -6,-28 -6,-44 0,-92 77,-169 170,-169 15,0 31,3 43,6l0 -16z"/>
      <path class="fil1" d="M3356 2887c-12,-4 -28,-4 -43,-4 -99,0 -176,78 -176,176 0,16 0,28 3,44l19 0c-7,-16 -7,-28 -7,-44 0,-89 71,-160 161,-160 15,0 31,0 43,3l0 -15z"/>
      <path class="fil1" d="M3356 2896c-12,-3 -28,-6 -43,-6 -93,0 -170,77 -170,169 0,16 3,28 6,44l16 0c-3,-16 -6,-28 -6,-44 0,-86 71,-154 154,-154 15,0 31,3 43,6l0 -15z"/>
      <path class="fil1" d="M3356 2902c-12,-3 -28,-3 -43,-3 -90,0 -161,71 -161,160 0,16 0,28 7,44l15 0c-6,-16 -6,-28 -6,-44 0,-80 65,-145 145,-145 15,0 31,0 43,6l0 -18z"/>
      <path class="fil1" d="M3356 2911c-12,-3 -28,-6 -43,-6 -83,0 -154,68 -154,154 0,16 3,28 6,44l15 0c-3,-16 -6,-28 -6,-44 0,-77 62,-139 139,-139 15,0 31,4 43,7l0 -16z"/>
      <path class="fil1" d="M3356 2920c-12,-6 -28,-6 -43,-6 -80,0 -145,65 -145,145 0,16 0,28 6,44l15 0c-3,-16 -6,-28 -6,-44 0,-74 59,-132 130,-132 15,0 31,3 43,9l0 -16z"/>
      <path class="fil1" d="M3356 2927c-12,-3 -28,-7 -43,-7 -77,0 -139,62 -139,139 0,16 3,28 6,44l19 0c-6,-16 -10,-28 -10,-44 0,-67 56,-123 124,-123 15,0 31,3 43,9l0 -18z"/>
      <path class="fil1" d="M3356 2936c-12,-6 -28,-9 -43,-9 -71,0 -130,58 -130,132 0,16 3,28 6,44l16 0c-3,-16 -6,-28 -6,-44 0,-64 49,-117 114,-117 15,0 31,3 43,9l0 -15z"/>
      <path class="fil1" d="M3356 2945c-12,-6 -28,-9 -43,-9 -68,0 -124,56 -124,123 0,16 4,28 10,44l15 0c-6,-16 -9,-28 -9,-44 0,-58 49,-108 108,-108 15,0 31,3 43,10l0 -16z"/>
      <path class="fil1" d="M3356 2951c-12,-6 -28,-9 -43,-9 -65,0 -114,53 -114,117 0,16 3,28 6,44l18 0c-6,-13 -9,-28 -9,-44 0,-55 43,-101 99,-101 15,0 31,6 43,12l0 -19z"/>
      <path class="fil1" d="M3356 2961c-12,-7 -28,-10 -43,-10 -59,0 -108,50 -108,108 0,16 3,28 9,44l19 0c-10,-13 -13,-28 -13,-44 0,-52 44,-92 93,-92 15,0 31,3 43,9l0 -15z"/>
      <path class="fil1" d="M3356 2970c-12,-6 -28,-12 -43,-12 -56,0 -99,46 -99,101 0,16 3,31 9,44l16 0c-6,-13 -9,-28 -9,-44 0,-46 37,-86 83,-86 15,0 31,6 43,12l0 -15z"/>
      <path class="fil1" d="M3356 2976c-12,-6 -28,-9 -43,-9 -49,0 -93,40 -93,92 0,16 3,31 13,44l15 0c-6,-13 -12,-28 -12,-44 0,-43 34,-77 77,-77 15,0 31,6 43,13l0 -19z"/>
      <path class="fil1" d="M3356 2985c-12,-6 -28,-12 -43,-12 -46,0 -83,40 -83,86 0,16 3,31 9,44l18 0c-9,-13 -12,-28 -12,-44 0,-40 31,-71 68,-71 15,0 31,7 43,16l0 -19z"/>
      <path class="fil1" d="M3356 2995c-12,-7 -28,-13 -43,-13 -43,0 -77,34 -77,77 0,16 6,31 12,44l22 0c-13,-13 -19,-28 -19,-44 0,-34 28,-61 62,-61 18,0 34,6 43,18l0 -21z"/>
      <path class="fil1" d="M3356 3004c-12,-9 -28,-16 -43,-16 -37,0 -68,31 -68,71 0,16 3,31 12,44l25 0c-15,-10 -22,-25 -22,-44 0,-30 22,-55 53,-55 18,0 34,9 43,25l0 -25zm0 86l0 0 0 13 -9 0c3,-3 6,-7 9,-13z"/>
      <path class="fil1" d="M3356 3016c-9,-12 -25,-18 -43,-18 -34,0 -62,27 -62,61 0,16 6,31 19,44l28 0c-19,-10 -31,-25 -31,-44 0,-24 21,-46 46,-46 22,0 37,12 43,31l0 -28zm0 59l0 0 0 28 -25 0c13,-7 22,-16 25,-28z"/>
      <path class="fil1" d="M3356 3029c-9,-16 -25,-25 -43,-25 -31,0 -53,25 -53,55 0,19 7,34 22,44l65 0c3,-3 6,-7 9,-13l0 -61zm-3 30l0 0c0,22 -18,37 -40,37 -22,0 -37,-15 -37,-37 0,-21 15,-40 37,-40 22,0 40,19 40,40z"/>
      <path class="fil1" d="M3356 3044c-6,-19 -21,-31 -43,-31 -25,0 -46,22 -46,46 0,19 12,34 31,44l33 0c13,-7 22,-16 25,-28l0 -31zm-12 15l0 0c0,16 -13,31 -31,31 -15,0 -31,-15 -31,-31 0,-18 16,-30 31,-30 18,0 31,12 31,30z"/>
      <path class="fil1" d="M3353 3059c0,-21 -18,-40 -40,-40 -22,0 -37,19 -37,40 0,22 15,37 37,37 22,0 40,-15 40,-37zm-15 0l0 0c0,13 -13,22 -25,22 -12,0 -22,-9 -22,-22 0,-12 10,-24 22,-24 12,0 25,12 25,24z"/>
      <path class="fil1" d="M3344 3059c0,-18 -13,-30 -31,-30 -15,0 -31,12 -31,30 0,16 16,31 31,31 18,0 31,-15 31,-31zm-16 0l0 0c0,10 -6,16 -15,16 -9,0 -15,-6 -15,-16 0,-9 6,-15 15,-15 9,0 15,6 15,15z"/>
      <path class="fil1" d="M3338 3059c0,-12 -13,-24 -25,-24 -12,0 -22,12 -22,24 0,13 10,22 22,22 12,0 25,-9 25,-22z"/>
      <path class="fil1" d="M3328 3059c0,-9 -6,-15 -15,-15 -9,0 -15,6 -15,15 0,10 6,16 15,16 9,0 15,-6 15,-16z"/>
      <path class="fil1" d="M3322 3059c0,-6 -6,-9 -9,-9 -3,0 -6,3 -6,9 0,4 3,7 6,7 3,0 9,-3 9,-7z"/>
     </g>
     <g>
      <path class="fil1" d="M4807 3084c0,3 0,6 0,12 0,-6 -3,-9 -3,-12l3 0z"/>
      <path class="fil1" d="M4807 3084c-3,56 -6,114 -15,173 3,-43 6,-86 6,-133 0,-12 0,-28 0,-40l9 0z"/>
      <path class="fil1" d="M4807 3096c0,-6 -3,-9 -3,-12l-15 0c3,12 3,28 3,40 0,99 -13,192 -31,284 28,-102 43,-207 46,-312z"/>
      <path class="fil1" d="M4798 3124c0,-12 0,-28 0,-40l-16 0c0,12 0,28 0,40 0,155 -24,303 -71,442 41,-99 65,-204 81,-309 3,-43 6,-86 6,-133z"/>
      <path class="fil1" d="M4792 3124c0,-12 0,-28 -3,-40l-16 0c3,12 3,28 3,40 0,223 -52,432 -145,618 59,-105 102,-220 133,-334 18,-92 28,-185 28,-284zm-1430 1383l0 0c0,0 -6,3 -12,3l0 -3c6,0 12,0 12,0z"/>
      <path class="fil1" d="M4782 3124c0,-12 0,-28 0,-40l-15 0c0,12 0,28 0,40 0,315 -105,602 -278,834 93,-121 170,-253 222,-392 47,-139 71,-287 71,-442zm-1250 1371l0 0c-59,6 -120,12 -182,15l0 -9c12,0 28,0 43,0 47,0 93,-3 139,-6z"/>
      <path class="fil1" d="M4776 3124c0,-12 0,-28 -3,-40l-15 0c3,12 3,28 3,40 0,757 -615,1368 -1368,1368 -15,0 -31,0 -43,0l0 15c6,0 12,0 12,0 593,-18 1038,-342 1269,-765 93,-186 145,-395 145,-618z"/>
      <path class="fil1" d="M4767 3124c0,-12 0,-28 0,-40l-15 0c0,12 0,28 0,40 0,754 -609,1362 -1359,1362 -15,0 -31,0 -43,0l0 15c12,0 28,0 43,0 47,0 93,-3 139,-6 408,-56 735,-262 957,-537 173,-232 278,-519 278,-834z"/>
      <path class="fil1" d="M4761 3124c0,-12 0,-28 -3,-40l-16 0c3,12 3,28 3,40 0,747 -605,1352 -1352,1352 -15,0 -31,0 -43,0l0 16c12,0 28,0 43,0 753,0 1368,-611 1368,-1368z"/>
      <path class="fil1" d="M4752 3124c0,-12 0,-28 0,-40l-16 0c0,12 0,28 0,40 0,744 -602,1346 -1343,1346 -15,0 -31,0 -43,0l0 16c12,0 28,0 43,0 750,0 1359,-608 1359,-1362z"/>
      <path class="fil1" d="M4745 3124c0,-12 0,-28 -3,-40l-15 0c3,12 3,28 3,40 0,741 -599,1337 -1337,1337 -15,0 -31,0 -43,0l0 15c12,0 28,0 43,0 747,0 1352,-605 1352,-1352z"/>
      <path class="fil1" d="M4736 3124c0,-12 0,-28 0,-40l-15 0c0,12 0,28 0,40 0,735 -596,1331 -1328,1331 -15,0 -31,0 -43,0l0 15c12,0 28,0 43,0 741,0 1343,-602 1343,-1346z"/>
      <path class="fil1" d="M4730 3124c0,-12 0,-28 -3,-40l-16 0c4,12 4,28 4,40 0,732 -593,1322 -1322,1322 -15,0 -31,0 -43,0l0 15c12,0 28,0 43,0 738,0 1337,-596 1337,-1337z"/>
      <path class="fil1" d="M4721 3124c0,-12 0,-28 0,-40l-16 0c0,12 0,28 0,40 0,726 -586,1315 -1312,1315 -15,0 -31,0 -43,0l0 16c12,0 28,0 43,0 732,0 1328,-596 1328,-1331z"/>
      <path class="fil1" d="M4715 3124c0,-12 0,-28 -4,-40l-15 0c3,12 3,28 3,40 0,723 -586,1306 -1306,1306 -15,0 -31,0 -43,0l0 16c12,0 28,0 43,0 729,0 1322,-590 1322,-1322z"/>
      <path class="fil1" d="M4705 3124c0,-12 0,-28 0,-40l-15 0c0,12 0,28 0,40 0,720 -581,1300 -1297,1300 -15,0 -31,0 -43,0l0 15c12,0 28,0 43,0 726,0 1312,-589 1312,-1315z"/>
      <path class="fil1" d="M4699 3124c0,-12 0,-28 -3,-40l-15 0c3,12 3,28 3,40 0,713 -581,1291 -1291,1291 -15,0 -31,0 -43,0l0 15c12,0 28,0 43,0 720,0 1306,-583 1306,-1306z"/>
      <path class="fil1" d="M4690 3124c0,-12 0,-28 0,-40l-16 0c0,12 0,28 0,40 0,710 -574,1285 -1281,1285 -15,0 -31,0 -43,0l0 15c12,0 28,0 43,0 716,0 1297,-580 1297,-1300z"/>
      <path class="fil1" d="M4684 3124c0,-12 0,-28 -3,-40l-16 0c3,12 3,28 3,40 0,707 -571,1275 -1275,1275 -15,0 -31,0 -43,0l0 16c12,0 28,0 43,0 710,0 1291,-578 1291,-1291z"/>
      <path class="fil1" d="M4674 3124c0,-12 0,-28 0,-40l-15 0c0,12 0,28 0,40 0,701 -568,1269 -1266,1269 -15,0 -31,0 -43,0l0 16c12,0 28,0 43,0 707,0 1281,-575 1281,-1285z"/>
      <path class="fil1" d="M4668 3124c0,-12 0,-28 -3,-40l-15 0c3,12 3,28 3,40 0,698 -565,1260 -1260,1260 -15,0 -31,0 -43,0l0 15c12,0 28,0 43,0 704,0 1275,-568 1275,-1275z"/>
      <path class="fil1" d="M4659 3124c0,-12 0,-28 0,-40l-15 0c0,12 0,28 0,40 0,692 -559,1254 -1251,1254 -15,0 -31,0 -43,0l0 15c12,0 28,0 43,0 698,0 1266,-568 1266,-1269z"/>
      <path class="fil1" d="M4653 3124c0,-12 0,-28 -3,-40l-16 0c0,12 3,28 3,40 0,689 -558,1244 -1244,1244 -15,0 -31,0 -43,0l0 16c12,0 28,0 43,0 695,0 1260,-562 1260,-1260z"/>
      <path class="fil1" d="M4644 3124c0,-12 0,-28 0,-40l-16 0c0,12 0,28 0,40 0,686 -553,1238 -1235,1238 -15,0 -31,0 -43,0l0 16c12,0 28,0 43,0 692,0 1251,-562 1251,-1254z"/>
      <path class="fil1" d="M4637 3124c0,-12 -3,-28 -3,-40l-15 0c0,12 3,28 3,40 0,679 -553,1229 -1229,1229 -15,0 -31,0 -43,0l0 15c12,0 28,0 43,0 686,0 1244,-555 1244,-1244z"/>
      <path class="fil1" d="M4628 3124c0,-12 0,-28 0,-40l-15 0c0,12 0,28 0,40 0,676 -547,1223 -1220,1223 -15,0 -31,0 -43,0l0 15c12,0 28,0 43,0 682,0 1235,-552 1235,-1238z"/>
      <path class="fil1" d="M4622 3124c0,-12 -3,-28 -3,-40l-16 0c0,12 3,28 3,40 0,670 -543,1214 -1213,1214 -15,0 -31,0 -43,0l0 15c12,0 28,0 43,0 676,0 1229,-550 1229,-1229z"/>
      <path class="fil1" d="M4613 3124c0,-12 0,-28 0,-40l-16 0c0,12 0,28 0,40 0,667 -540,1207 -1204,1207 -15,0 -31,0 -43,0l0 16c12,0 28,0 43,0 673,0 1220,-547 1220,-1223z"/>
      <path class="fil1" d="M4606 3124c0,-12 -3,-28 -3,-40l-15 0c0,12 3,28 3,40 0,664 -537,1198 -1198,1198 -15,0 -31,0 -43,0l0 16c12,0 28,0 43,0 670,0 1213,-544 1213,-1214z"/>
      <path class="fil1" d="M4597 3124c0,-12 0,-28 0,-40l-15 0c0,12 0,28 0,40 0,658 -534,1192 -1189,1192 -15,0 -31,0 -43,0l0 15c12,0 28,0 43,0 664,0 1204,-540 1204,-1207z"/>
      <path class="fil1" d="M4591 3124c0,-12 -3,-28 -3,-40l-15 0c0,12 3,28 3,40 0,655 -531,1183 -1183,1183 -15,0 -31,0 -43,0l0 15c12,0 28,0 43,0 661,0 1198,-534 1198,-1198z"/>
      <path class="fil1" d="M4582 3124c0,-12 0,-28 0,-40l-16 0c0,12 0,28 0,40 0,652 -524,1176 -1173,1176 -15,0 -31,0 -43,0l0 16c12,0 28,0 43,0 655,0 1189,-534 1189,-1192z"/>
      <path class="fil1" d="M4576 3124c0,-12 -3,-28 -3,-40l-16 0c0,12 3,28 3,40 0,645 -525,1167 -1167,1167 -15,0 -31,0 -43,0l0 16c12,0 28,0 43,0 652,0 1183,-528 1183,-1183z"/>
      <path class="fil1" d="M4566 3124c0,-12 0,-28 0,-40l-15 0c0,12 0,28 0,40 0,642 -519,1161 -1158,1161 -15,0 -31,0 -43,0l0 15c12,0 28,0 43,0 649,0 1173,-524 1173,-1176z"/>
      <path class="fil1" d="M4560 3124c0,-12 -3,-28 -3,-40l-15 0c0,12 3,28 3,40 0,636 -516,1152 -1152,1152 -15,0 -31,0 -43,0l0 15c12,0 28,0 43,0 642,0 1167,-522 1167,-1167z"/>
      <path class="fil1" d="M4551 3124c0,-12 0,-28 0,-40l-16 0c0,12 0,28 0,40 0,633 -512,1146 -1142,1146 -15,0 -31,0 -43,0l0 15c12,0 28,0 43,0 639,0 1158,-519 1158,-1161z"/>
      <path class="fil1" d="M4545 3124c0,-12 -3,-28 -3,-40l-16 0c0,12 3,28 3,40 0,630 -509,1136 -1136,1136 -15,0 -31,0 -43,0l0 16c12,0 28,0 43,0 636,0 1152,-516 1152,-1152z"/>
      <path class="fil1" d="M4535 3124c0,-12 0,-28 0,-40l-15 0c0,12 0,28 0,40 0,624 -506,1130 -1127,1130 -15,0 -31,0 -43,0l0 16c12,0 28,0 43,0 630,0 1142,-513 1142,-1146z"/>
      <path class="fil1" d="M4529 3124c0,-12 -3,-28 -3,-40l-15 0c0,12 3,28 3,40 0,621 -503,1121 -1121,1121 -15,0 -31,0 -43,0l0 15c12,0 28,0 43,0 627,0 1136,-506 1136,-1136z"/>
      <path class="fil1" d="M4520 3124c0,-12 0,-28 0,-40l-15 0c0,12 0,28 0,40 0,618 -497,1115 -1112,1115 -15,0 -31,0 -43,0l0 15c12,0 28,0 43,0 621,0 1127,-506 1127,-1130z"/>
      <path class="fil1" d="M4514 3124c0,-12 -3,-28 -3,-40l-16 0c0,12 3,28 3,40 0,612 -497,1105 -1105,1105 -15,0 -31,0 -43,0l0 16c12,0 28,0 43,0 618,0 1121,-500 1121,-1121z"/>
      <path class="fil1" d="M4505 3124c0,-12 0,-28 0,-40l-16 0c0,12 0,28 0,40 0,608 -491,1099 -1096,1099 -15,0 -31,0 -43,0l0 16c12,0 28,0 43,0 615,0 1112,-497 1112,-1115z"/>
      <path class="fil1" d="M4498 3124c0,-12 -3,-28 -3,-40l-15 0c0,12 3,28 3,40 0,602 -488,1090 -1090,1090 -15,0 -31,0 -43,0l0 15c12,0 28,0 43,0 608,0 1105,-493 1105,-1105z"/>
      <path class="fil1" d="M4489 3124c0,-12 0,-28 0,-40l-15 0c0,12 0,28 0,40 0,599 -485,1084 -1081,1084 -15,0 -31,0 -43,0l0 15c12,0 28,0 43,0 605,0 1096,-491 1096,-1099z"/>
      <path class="fil1" d="M4483 3124c0,-12 -3,-28 -3,-40l-16 0c0,12 4,28 4,40 0,596 -482,1075 -1075,1075 -15,0 -31,0 -43,0l0 15c12,0 28,0 43,0 602,0 1090,-488 1090,-1090z"/>
      <path class="fil1" d="M4474 3124c0,-12 0,-28 0,-40l-16 0c0,12 0,28 0,40 0,590 -478,1068 -1065,1068 -15,0 -31,0 -43,0l0 16c12,0 28,0 43,0 596,0 1081,-485 1081,-1084z"/>
      <path class="fil1" d="M4468 3124c0,-12 -4,-28 -4,-40l-15 0c0,12 3,28 3,40 0,587 -475,1059 -1059,1059 -15,0 -31,0 -43,0l0 16c12,0 28,0 43,0 593,0 1075,-479 1075,-1075z"/>
      <path class="fil1" d="M4458 3124c0,-12 0,-28 0,-40l-15 0c0,12 0,28 0,40 0,581 -469,1053 -1050,1053 -15,0 -31,0 -43,0l0 15c12,0 28,0 43,0 587,0 1065,-478 1065,-1068z"/>
      <path class="fil1" d="M4452 3124c0,-12 -3,-28 -3,-40l-15 0c0,12 3,28 3,40 0,578 -470,1044 -1044,1044 -15,0 -31,0 -43,0l0 15c12,0 28,0 43,0 584,0 1059,-472 1059,-1059z"/>
      <path class="fil1" d="M4443 3124c0,-12 0,-28 0,-40l-16 0c0,12 0,28 0,40 0,574 -463,1038 -1034,1038 -15,0 -31,0 -43,0l0 15c12,0 28,0 43,0 581,0 1050,-472 1050,-1053z"/>
      <path class="fil1" d="M4437 3124c0,-12 -3,-28 -3,-40l-16 0c0,12 3,28 3,40 0,568 -463,1028 -1028,1028 -15,0 -31,0 -43,0l0 16c12,0 28,0 43,0 574,0 1044,-466 1044,-1044z"/>
      <path class="fil1" d="M4427 3124c0,-12 0,-28 0,-40l-15 0c0,12 0,28 0,40 0,565 -457,1022 -1019,1022 -15,0 -31,0 -43,0l0 16c12,0 28,0 43,0 571,0 1034,-464 1034,-1038z"/>
      <path class="fil1" d="M4421 3124c0,-12 -3,-28 -3,-40l-15 0c0,12 3,28 3,40 0,562 -454,1013 -1013,1013 -15,0 -31,0 -43,0l0 15c12,0 28,0 43,0 565,0 1028,-460 1028,-1028z"/>
      <path class="fil1" d="M4412 3124c0,-12 0,-28 0,-40l-15 0c0,12 0,28 0,40 0,556 -451,1007 -1004,1007 -15,0 -31,0 -43,0l0 15c12,0 28,0 43,0 562,0 1019,-457 1019,-1022z"/>
      <path class="fil1" d="M4406 3124c0,-12 -3,-28 -3,-40l-16 0c0,12 3,28 3,40 0,553 -447,997 -997,997 -15,0 -31,0 -43,0l0 16c12,0 28,0 43,0 559,0 1013,-451 1013,-1013z"/>
      <path class="fil1" d="M4397 3124c0,-12 0,-28 0,-40l-16 0c0,12 0,28 0,40 0,547 -441,991 -988,991 -15,0 -31,0 -43,0l0 16c12,0 28,0 43,0 553,0 1004,-451 1004,-1007z"/>
      <path class="fil1" d="M4390 3124c0,-12 -3,-28 -3,-40l-15 0c0,12 3,28 3,40 0,544 -442,982 -982,982 -15,0 -31,0 -43,0l0 15c12,0 28,0 43,0 550,0 997,-444 997,-997z"/>
      <path class="fil1" d="M4381 3124c0,-12 0,-28 0,-40l-15 0c0,12 0,28 0,40 0,541 -436,976 -973,976 -15,0 -31,0 -43,0l0 15c12,0 28,0 43,0 547,0 988,-444 988,-991z"/>
      <path class="fil1" d="M4375 3124c0,-12 -3,-28 -3,-40l-16 0c0,12 0,28 0,40 0,534 -432,967 -963,967 -15,0 -31,0 -43,0l0 15c12,0 28,0 43,0 540,0 982,-438 982,-982z"/>
      <path class="fil1" d="M4366 3124c0,-12 0,-28 0,-40l-16 0c0,12 0,28 0,40 0,531 -429,960 -957,960 -15,0 -31,0 -43,-3l0 19c12,0 28,0 43,0 537,0 973,-435 973,-976z"/>
      <path class="fil1" d="M4356 3124c0,-12 0,-28 0,-40l-15 0c0,12 0,28 0,40 0,525 -423,951 -948,951 -15,0 -31,0 -43,0l0 16c12,0 28,0 43,0 531,0 963,-433 963,-967z"/>
      <path class="fil1" d="M4350 3124c0,-12 0,-28 0,-40l-15 0c0,12 0,28 0,40 0,522 -423,945 -942,945 -15,0 -31,0 -43,-3l0 15c12,3 28,3 43,3 528,0 957,-429 957,-960z"/>
      <path class="fil1" d="M4341 3124c0,-12 0,-28 0,-40l-15 0c0,12 0,28 0,40 0,519 -417,936 -933,936 -15,0 -31,0 -43,0l0 15c12,0 28,0 43,0 525,0 948,-426 948,-951z"/>
      <path class="fil1" d="M4335 3124c0,-12 0,-28 0,-40l-16 0c0,12 0,28 0,40 0,513 -416,930 -926,930 -15,0 -31,0 -43,-4l0 16c12,3 28,3 43,3 519,0 942,-423 942,-945z"/>
      <path class="fil1" d="M4326 3124c0,-12 0,-28 0,-40l-16 0c0,12 0,28 0,40 0,510 -410,920 -917,920 -15,0 -31,0 -43,0l0 16c12,0 28,0 43,0 516,0 933,-417 933,-936z"/>
      <path class="fil1" d="M4319 3124c0,-12 0,-28 0,-40l-15 0c0,12 0,28 0,40 0,507 -408,914 -911,914 -15,0 -31,0 -43,-3l0 15c12,4 28,4 43,4 510,0 926,-417 926,-930z"/>
      <path class="fil1" d="M4310 3124c0,-12 0,-28 0,-40l-15 0c0,12 0,28 0,40 0,500 -405,905 -902,905 -15,0 -31,0 -43,0l0 15c12,0 28,0 43,0 507,0 917,-410 917,-920z"/>
      <path class="fil1" d="M4304 3124c0,-12 0,-28 0,-40l-16 0c0,12 0,28 0,40 0,497 -401,899 -895,899 -15,0 -31,0 -43,-3l0 15c12,3 28,3 43,3 503,0 911,-407 911,-914z"/>
      <path class="fil1" d="M4295 3124c0,-12 0,-28 0,-40l-16 0c0,12 0,28 0,40 0,491 -395,889 -886,889 -15,0 -31,0 -43,0l0 16c12,0 28,0 43,0 497,0 902,-405 902,-905z"/>
      <path class="fil1" d="M4288 3124c0,-12 0,-28 0,-40l-15 0c0,12 0,28 0,40 0,488 -395,883 -880,883 -15,0 -31,0 -43,-3l0 16c12,3 28,3 43,3 494,0 895,-402 895,-899z"/>
      <path class="fil1" d="M4279 3124c0,-12 0,-28 0,-40l-15 0c0,12 0,28 0,40 0,485 -389,874 -871,874 -15,0 -31,0 -43,0l0 15c12,0 28,0 43,0 491,0 886,-398 886,-889z"/>
      <path class="fil1" d="M4273 3124c0,-12 0,-28 0,-40l-15 0c0,12 0,28 0,40 0,479 -389,868 -865,868 -15,0 -31,0 -43,-3l0 15c12,3 28,3 43,3 485,0 880,-395 880,-883z"/>
      <path class="fil1" d="M4264 3124c0,-12 0,-28 0,-40l-16 0c0,12 0,28 0,40 0,476 -382,858 -855,858 -15,0 -31,0 -43,0l0 16c12,0 28,0 43,0 482,0 871,-389 871,-874z"/>
      <path class="fil1" d="M4258 3124c0,-12 0,-28 0,-40l-16 0c0,12 0,28 0,40 0,473 -380,852 -849,852 -15,0 -31,0 -43,-3l0 16c12,3 28,3 43,3 476,0 865,-389 865,-868z"/>
      <path class="fil1" d="M4248 3124c0,-12 0,-28 0,-40l-15 0c0,12 0,28 0,40 0,466 -377,843 -840,843 -15,0 -31,0 -43,0l0 15c12,0 28,0 43,0 473,0 855,-382 855,-858z"/>
      <path class="fil1" d="M4242 3124c0,-12 0,-28 0,-40l-15 0c0,12 0,28 0,40 0,463 -374,837 -834,837 -15,0 -31,0 -43,-3l0 15c12,3 28,3 43,3 469,0 849,-379 849,-852z"/>
      <path class="fil1" d="M4233 3124c0,-12 0,-28 0,-40l-16 0c0,12 0,28 0,40 0,457 -367,828 -824,828 -15,0 -31,0 -43,0l0 15c12,0 28,0 43,0 463,0 840,-377 840,-843z"/>
      <path class="fil1" d="M4227 3124c0,-12 0,-28 0,-40l-16 0c0,12 0,28 0,40 0,454 -367,821 -818,821 -15,0 -31,0 -43,-3l0 16c12,3 28,3 43,3 460,0 834,-374 834,-837z"/>
      <path class="fil1" d="M4217 3124c0,-12 0,-28 0,-40l-15 0c0,12 0,28 0,40 0,451 -361,812 -809,812 -15,0 -31,0 -43,0l0 16c12,0 28,0 43,0 457,0 824,-371 824,-828z"/>
      <path class="fil1" d="M4211 3124c0,-12 0,-28 0,-40l-15 0c0,12 0,28 0,40 0,445 -361,806 -803,806 -15,0 -31,0 -43,-3l0 15c12,3 28,3 43,3 451,0 818,-367 818,-821z"/>
      <path class="fil1" d="M4202 3124c0,-12 0,-28 0,-40l-15 0c0,12 0,28 0,40 0,442 -355,797 -794,797 -15,0 -31,0 -43,0l0 15c12,0 28,0 43,0 448,0 809,-361 809,-812z"/>
      <path class="fil1" d="M4196 3124c0,-12 0,-28 0,-40l-16 0c0,12 0,28 0,40 0,436 -351,791 -787,791 -15,0 -31,0 -43,-4l0 16c12,3 28,3 43,3 442,0 803,-361 803,-806z"/>
      <path class="fil1" d="M4187 3124c0,-12 0,-28 0,-40l-16 0c0,12 0,28 0,40 0,432 -349,781 -778,781 -15,0 -31,0 -43,0l0 16c12,0 28,0 43,0 439,0 794,-355 794,-797z"/>
      <path class="fil1" d="M4180 3124c0,-12 0,-28 0,-40l-15 0c0,12 0,28 0,40 0,429 -346,775 -772,775 -15,0 -31,0 -43,-3l0 15c12,4 28,4 43,4 436,0 787,-355 787,-791z"/>
      <path class="fil1" d="M4171 3124c0,-12 0,-28 0,-40l-15 0c0,12 0,28 0,40 0,423 -343,766 -763,766 -15,0 -31,0 -43,0l0 15c12,0 28,0 43,0 429,0 778,-349 778,-781z"/>
      <path class="fil1" d="M4165 3124c0,-12 0,-28 0,-40l-15 0c0,12 0,28 0,40 0,420 -340,760 -757,760 -15,0 -31,0 -43,-3l0 15c12,3 28,3 43,3 426,0 772,-346 772,-775z"/>
      <path class="fil1" d="M4156 3124c0,-12 0,-28 0,-40l-16 0c0,12 0,28 0,40 0,417 -333,750 -747,750 -15,0 -31,0 -43,0l0 16c12,0 28,0 43,0 420,0 763,-343 763,-766z"/>
      <path class="fil1" d="M4150 3124c0,-12 0,-28 0,-40l-19 0c3,12 3,28 3,40 0,411 -333,744 -741,744 -15,0 -31,0 -43,-3l0 16c12,3 28,3 43,3 417,0 757,-340 757,-760z"/>
      <path class="fil1" d="M4140 3124c0,-12 0,-28 0,-40l-15 0c0,12 0,28 0,40 0,408 -327,735 -732,735 -15,0 -31,0 -43,0l0 15c12,0 28,0 43,0 414,0 747,-333 747,-750z"/>
      <path class="fil1" d="M4134 3124c0,-12 0,-28 -3,-40l-15 0c3,12 3,28 3,40 0,402 -324,729 -726,729 -15,0 -31,0 -43,-3l0 15c12,3 28,3 43,3 408,0 741,-333 741,-744z"/>
      <path class="fil1" d="M4125 3124c0,-12 0,-28 0,-40l-16 0c0,12 0,28 0,40 0,398 -321,720 -716,720 -15,0 -31,0 -43,0l0 15c12,0 28,0 43,0 405,0 732,-327 732,-735z"/>
      <path class="fil1" d="M4119 3124c0,-12 0,-28 -3,-40l-16 0c3,12 3,28 3,40 0,395 -318,713 -710,713 -15,0 -31,0 -43,-3l0 16c12,3 28,3 43,3 402,0 726,-327 726,-729z"/>
      <path class="fil1" d="M4109 3124c0,-12 0,-28 0,-40l-15 0c0,12 0,28 0,40 0,389 -315,704 -701,704 -15,0 -31,0 -43,0l0 16c12,0 28,0 43,0 395,0 716,-322 716,-720z"/>
      <path class="fil1" d="M4103 3124c0,-12 0,-28 -3,-40l-15 0c3,12 3,28 3,40 0,386 -312,698 -695,698 -15,0 -31,0 -43,-3l0 15c12,3 28,3 43,3 392,0 710,-318 710,-713z"/>
      <path class="fil1" d="M4094 3124c0,-12 0,-28 0,-40l-15 0c0,12 0,28 0,40 0,380 -306,689 -686,689 -15,0 -31,0 -43,0l0 15c12,0 28,0 43,0 386,0 701,-315 701,-704z"/>
      <path class="fil1" d="M4088 3124c0,-12 0,-28 -3,-40l-16 0c3,12 3,28 3,40 0,377 -305,683 -679,683 -15,0 -31,0 -43,-4l0 16c12,3 28,3 43,3 383,0 695,-312 695,-698z"/>
      <path class="fil1" d="M4079 3124c0,-12 0,-28 0,-40l-16 0c0,12 0,28 0,40 0,374 -299,673 -670,673 -15,0 -31,0 -43,0l0 16c12,0 28,0 43,0 380,0 686,-309 686,-689z"/>
      <path class="fil1" d="M4072 3124c0,-12 0,-28 -3,-40l-15 0c3,12 3,28 3,40 0,368 -299,667 -664,667 -15,0 -31,0 -43,-3l0 15c12,4 28,4 43,4 374,0 679,-306 679,-683z"/>
      <path class="fil1" d="M4063 3124c0,-12 0,-28 0,-40l-15 0c0,12 0,28 0,40 0,365 -294,658 -655,658 -15,0 -31,0 -43,0l0 15c12,0 28,0 43,0 371,0 670,-299 670,-673z"/>
      <path class="fil1" d="M4057 3124c0,-12 0,-28 -3,-40l-16 0c4,12 4,28 4,40 0,361 -291,652 -649,652 -15,0 -31,0 -43,-3l0 15c12,3 28,3 43,3 365,0 664,-299 664,-667z"/>
      <path class="fil1" d="M4048 3124c0,-12 0,-28 0,-40l-16 0c0,12 0,28 0,40 0,355 -287,642 -639,642 -15,0 -31,0 -43,0l0 16c12,0 28,0 43,0 361,0 655,-293 655,-658z"/>
      <path class="fil1" d="M4042 3124c0,-12 0,-28 -4,-40l-15 0c3,12 3,28 3,40 0,352 -284,636 -633,636 -15,0 -31,0 -43,-3l0 16c12,3 28,3 43,3 358,0 649,-291 649,-652z"/>
      <path class="fil1" d="M4032 3124c0,-12 0,-28 0,-40l-15 0c0,12 0,28 0,40 0,346 -278,627 -624,627 -15,0 -31,0 -43,0l0 15c12,0 28,0 43,0 352,0 639,-287 639,-642z"/>
      <path class="fil1" d="M4026 3124c0,-12 0,-28 -3,-40l-15 0c3,12 3,28 3,40 0,343 -278,621 -618,621 -15,0 -31,0 -43,-3l0 15c12,3 28,3 43,3 349,0 633,-284 633,-636z"/>
      <path class="fil1" d="M4017 3124c0,-12 0,-28 0,-40l-16 0c0,12 0,28 0,40 0,340 -271,612 -608,612 -15,0 -31,0 -43,0l0 15c12,0 28,0 43,0 346,0 624,-281 624,-627z"/>
      <path class="fil1" d="M4011 3124c0,-12 0,-28 -3,-40l-16 0c3,12 3,28 3,40 0,334 -271,605 -602,605 -15,0 -31,0 -43,-3l0 16c12,3 28,3 43,3 340,0 618,-278 618,-621z"/>
      <path class="fil1" d="M4001 3124c0,-12 0,-28 0,-40l-15 0c0,12 0,28 0,40 0,331 -266,596 -593,596 -15,0 -31,0 -43,0l0 16c12,0 28,0 43,0 337,0 608,-272 608,-612z"/>
      <path class="fil1" d="M3995 3124c0,-12 0,-28 -3,-40l-15 0c3,12 3,28 3,40 0,328 -263,590 -587,590 -15,0 -31,0 -43,-3l0 15c12,3 28,3 43,3 331,0 602,-271 602,-605z"/>
      <path class="fil1" d="M3986 3124c0,-12 0,-28 0,-40l-15 0c0,12 0,28 0,40 0,321 -260,581 -578,581 -15,0 -31,0 -43,0l0 15c12,0 28,0 43,0 327,0 593,-265 593,-596z"/>
      <path class="fil1" d="M3980 3124c0,-12 0,-28 -3,-40l-16 0c3,12 3,28 3,40 0,318 -256,574 -571,574 -15,0 -31,0 -43,-3l0 16c12,3 28,3 43,3 324,0 587,-262 587,-590z"/>
      <path class="fil1" d="M3971 3124c0,-12 0,-28 0,-40l-16 0c0,12 0,28 0,40 0,312 -250,565 -562,565 -15,0 -31,0 -43,0l0 16c12,0 28,0 43,0 318,0 578,-260 578,-581z"/>
      <path class="fil1" d="M3964 3124c0,-12 0,-28 -3,-40l-15 0c3,12 3,28 3,40 0,309 -250,559 -556,559 -15,0 -31,-3 -43,-3l0 15c12,3 28,3 43,3 315,0 571,-256 571,-574z"/>
      <path class="fil1" d="M3955 3124c0,-12 0,-28 0,-40l-15 0c0,12 0,28 0,40 0,306 -244,550 -547,550 -15,0 -31,0 -43,0l0 15c12,0 28,0 43,0 312,0 562,-253 562,-565z"/>
      <path class="fil1" d="M3949 3124c0,-12 0,-28 -3,-40l-16 0c3,12 3,28 3,40 0,300 -243,544 -540,544 -15,0 -31,-3 -43,-3l0 15c12,0 28,3 43,3 306,0 556,-250 556,-559z"/>
      <path class="fil1" d="M3940 3124c0,-12 0,-28 0,-40l-16 0c0,12 0,28 0,40 0,297 -238,534 -531,534 -15,0 -31,0 -43,0l0 16c12,0 28,0 43,0 303,0 547,-244 547,-550z"/>
      <path class="fil1" d="M3933 3124c0,-12 0,-28 -3,-40l-15 0c3,12 3,28 3,40 0,290 -235,528 -525,528 -15,0 -31,-3 -43,-3l0 16c12,0 28,3 43,3 297,0 540,-244 540,-544z"/>
      <path class="fil1" d="M3924 3124c0,-12 0,-28 0,-40l-15 0c0,12 0,28 0,40 0,287 -232,519 -516,519 -15,0 -31,0 -43,0l0 15c12,0 28,0 43,0 293,0 531,-237 531,-534z"/>
      <path class="fil1" d="M3918 3124c0,-12 0,-28 -3,-40l-15 0c3,12 3,28 3,40 0,284 -229,513 -510,513 -15,0 -31,-3 -43,-3l0 15c12,0 28,3 43,3 290,0 525,-238 525,-528z"/>
      <path class="fil1" d="M3909 3124c0,-12 0,-28 0,-40l-16 0c0,12 0,28 0,40 0,278 -225,503 -500,503 -15,0 -31,0 -43,0l0 16c12,0 28,0 43,0 284,0 516,-232 516,-519z"/>
      <path class="fil1" d="M3903 3124c0,-12 0,-28 -3,-40l-16 0c3,12 3,28 3,40 0,275 -222,497 -494,497 -15,0 -31,-3 -43,-3l0 16c12,0 28,3 43,3 281,0 510,-229 510,-513z"/>
      <path class="fil1" d="M3893 3124c0,-12 0,-28 0,-40l-15 0c0,12 0,28 0,40 0,272 -216,488 -485,488 -15,0 -31,0 -43,0l0 15c12,0 28,0 43,0 275,0 500,-225 500,-503z"/>
      <path class="fil1" d="M3887 3124c0,-12 0,-28 -3,-40l-15 0c3,12 3,28 3,40 0,266 -216,482 -479,482 -15,0 -31,-3 -43,-3l0 15c12,0 28,3 43,3 272,0 494,-222 494,-497z"/>
      <path class="fil1" d="M3878 3124c0,-12 0,-28 0,-40l-16 0c0,12 0,28 0,40 0,263 -209,473 -469,473 -15,0 -31,0 -43,-3l0 18c12,0 28,0 43,0 269,0 485,-216 485,-488z"/>
      <path class="fil1" d="M3872 3124c0,-12 0,-28 -3,-40l-16 0c3,12 3,28 3,40 0,256 -207,466 -463,466 -15,0 -31,-3 -43,-3l0 16c12,0 28,3 43,3 263,0 479,-216 479,-482z"/>
      <path class="fil1" d="M3862 3124c0,-12 0,-28 0,-40l-15 0c0,12 0,28 0,40 0,253 -204,457 -454,457 -15,0 -31,0 -43,-3l0 16c12,3 28,3 43,3 260,0 469,-210 469,-473z"/>
      <path class="fil1" d="M3856 3124c0,-12 0,-28 -3,-40l-15 0c3,12 3,28 3,40 0,250 -201,451 -448,451 -15,0 -31,-3 -43,-3l0 15c12,0 28,3 43,3 256,0 463,-210 463,-466z"/>
      <path class="fil1" d="M3847 3124c0,-12 0,-28 0,-40l-15 0c0,12 0,28 0,40 0,244 -198,442 -439,442 -15,0 -31,0 -43,-3l0 15c12,3 28,3 43,3 250,0 454,-204 454,-457z"/>
      <path class="fil1" d="M3841 3124c0,-12 0,-28 -3,-40l-16 0c3,12 3,28 3,40 0,241 -194,436 -432,436 -15,0 -31,-4 -43,-4l0 16c12,0 28,3 43,3 247,0 448,-201 448,-451z"/>
      <path class="fil1" d="M3832 3124c0,-12 0,-28 0,-40l-16 0c0,12 0,28 0,40 0,235 -188,426 -423,426 -15,0 -31,0 -43,-3l0 16c12,3 28,3 43,3 241,0 439,-198 439,-442z"/>
      <path class="fil1" d="M3825 3124c0,-12 0,-28 -3,-40l-15 0c3,12 3,28 3,40 0,232 -188,420 -417,420 -15,0 -31,-3 -43,-3l0 15c12,0 28,4 43,4 238,0 432,-195 432,-436z"/>
      <path class="fil1" d="M3816 3124c0,-12 0,-28 0,-40l-15 0c0,12 0,28 0,40 0,229 -182,411 -408,411 -15,0 -31,0 -43,-3l0 15c12,3 28,3 43,3 235,0 423,-191 423,-426z"/>
      <path class="fil1" d="M3810 3124c0,-12 0,-28 -3,-40l-16 0c4,12 4,28 4,40 0,223 -180,405 -402,405 -15,0 -31,-3 -43,-3l0 15c12,0 28,3 43,3 229,0 417,-188 417,-420z"/>
      <path class="fil1" d="M3801 3124c0,-12 0,-28 0,-40l-16 0c0,12 0,28 0,40 0,219 -176,395 -392,395 -15,0 -31,0 -43,-3l0 16c12,3 28,3 43,3 226,0 408,-182 408,-411z"/>
      <path class="fil1" d="M3795 3124c0,-12 0,-28 -4,-40l-15 0c3,12 3,28 3,40 0,216 -173,389 -386,389 -15,0 -31,-3 -43,-3l0 16c12,0 28,3 43,3 222,0 402,-182 402,-405z"/>
      <path class="fil1" d="M3785 3124c0,-12 0,-28 0,-40l-18 0c3,12 3,28 3,40 0,210 -170,380 -377,380 -15,0 -31,0 -43,-3l0 15c12,3 28,3 43,3 216,0 392,-176 392,-395z"/>
      <path class="fil1" d="M3779 3124c0,-12 0,-28 -3,-40l-15 0c0,12 3,28 3,40 0,207 -167,374 -371,374 -15,0 -31,-3 -43,-3l0 15c12,0 28,3 43,3 213,0 386,-173 386,-389z"/>
      <path class="fil1" d="M3770 3124c0,-12 0,-28 -3,-40l-16 0c3,12 3,28 3,40 0,201 -160,365 -361,365 -15,0 -31,0 -43,-4l0 16c12,3 28,3 43,3 207,0 377,-170 377,-380z"/>
      <path class="fil1" d="M3764 3124c0,-12 -3,-28 -3,-40l-16 0c0,12 3,28 3,40 0,198 -160,358 -355,358 -15,0 -31,-3 -43,-3l0 16c12,0 28,3 43,3 204,0 371,-167 371,-374z"/>
      <path class="fil1" d="M3754 3124c0,-12 0,-28 -3,-40l-15 0c3,12 3,28 3,40 0,195 -154,349 -346,349 -15,0 -31,0 -43,-3l0 15c12,4 28,4 43,4 201,0 361,-164 361,-365z"/>
      <path class="fil1" d="M3748 3124c0,-12 -3,-28 -3,-40l-15 0c0,12 3,28 3,40 0,189 -155,343 -340,343 -15,0 -31,-3 -43,-3l0 15c12,0 28,3 43,3 195,0 355,-160 355,-358z"/>
      <path class="fil1" d="M3739 3124c0,-12 0,-28 -3,-40l-16 0c4,12 4,28 4,40 0,185 -149,334 -331,334 -15,0 -31,0 -43,-3l0 15c12,3 28,3 43,3 192,0 346,-154 346,-349z"/>
      <path class="fil1" d="M3733 3124c0,-12 -3,-28 -3,-40l-16 0c0,12 3,28 3,40 0,182 -145,328 -324,328 -15,0 -31,-4 -43,-4l0 16c12,0 28,3 43,3 185,0 340,-154 340,-343z"/>
      <path class="fil1" d="M3724 3124c0,-12 0,-28 -4,-40l-15 0c3,12 3,28 3,40 0,176 -142,318 -315,318 -15,0 -31,0 -43,-3l0 16c12,3 28,3 43,3 182,0 331,-149 331,-334z"/>
      <path class="fil1" d="M3717 3124c0,-12 -3,-28 -3,-40l-15 0c0,12 3,28 3,40 0,173 -139,312 -309,312 -15,0 -31,-3 -43,-3l0 15c12,0 28,4 43,4 179,0 324,-146 324,-328z"/>
      <path class="fil1" d="M3708 3124c0,-12 0,-28 -3,-40l-15 0c3,12 3,28 3,40 0,167 -133,303 -300,303 -15,0 -31,0 -43,-3l0 15c12,3 28,3 43,3 173,0 315,-142 315,-318z"/>
      <path class="fil1" d="M3702 3124c0,-12 -3,-28 -3,-40l-16 0c0,12 3,28 3,40 0,164 -132,297 -293,297 -15,0 -31,-3 -43,-3l0 15c12,0 28,3 43,3 170,0 309,-139 309,-312z"/>
      <path class="fil1" d="M3693 3124c0,-12 0,-28 -3,-40l-16 0c3,12 3,28 3,40 0,161 -126,287 -284,287 -15,0 -31,0 -43,-3l0 16c12,3 28,3 43,3 167,0 300,-136 300,-303z"/>
      <path class="fil1" d="M3686 3124c0,-12 -3,-28 -3,-40l-15 0c0,12 3,28 3,40 0,155 -127,281 -278,281 -15,0 -31,-3 -43,-6l0 19c12,0 28,3 43,3 161,0 293,-133 293,-297z"/>
      <path class="fil1" d="M3677 3124c0,-12 0,-28 -3,-40l-15 0c3,12 3,28 3,40 0,152 -121,272 -269,272 -15,0 -31,0 -43,-3l0 15c12,3 28,3 43,3 158,0 284,-126 284,-287z"/>
      <path class="fil1" d="M3671 3124c0,-12 -3,-28 -3,-40l-15 0c0,12 3,28 3,40 0,145 -118,266 -263,266 -15,0 -31,-3 -43,-6l0 15c12,3 28,6 43,6 151,0 278,-126 278,-281z"/>
      <path class="fil1" d="M3662 3124c0,-12 0,-28 -3,-40l-16 0c3,12 3,28 3,40 0,142 -114,256 -253,256 -15,0 -31,0 -43,-3l0 16c12,3 28,3 43,3 148,0 269,-120 269,-272z"/>
      <path class="fil1" d="M3656 3124c0,-12 -3,-28 -3,-40l-16 0c0,12 3,28 3,40 0,139 -111,250 -247,250 -15,0 -31,-3 -43,-6l0 16c12,3 28,6 43,6 145,0 263,-121 263,-266z"/>
      <path class="fil1" d="M3646 3124c0,-12 0,-28 -3,-40l-15 0c3,12 3,28 3,40 0,133 -108,241 -238,241 -15,0 -31,0 -43,-3l0 15c12,3 28,3 43,3 139,0 253,-114 253,-256z"/>
      <path class="fil1" d="M3640 3124c0,-12 -3,-28 -3,-40l-18 0c3,12 6,28 6,40 0,130 -105,235 -232,235 -15,0 -31,-3 -43,-6l0 15c12,3 28,6 43,6 136,0 247,-111 247,-250z"/>
      <path class="fil1" d="M3631 3124c0,-12 0,-28 -3,-40l-16 0c3,12 3,28 3,40 0,127 -98,226 -222,226 -15,0 -31,0 -43,-3l0 15c12,3 28,3 43,3 130,0 238,-108 238,-241z"/>
      <path class="fil1" d="M3625 3124c0,-12 -3,-28 -6,-40l-16 0c3,12 6,28 6,40 0,121 -98,219 -216,219 -15,0 -31,-3 -43,-6l0 16c12,3 28,6 43,6 127,0 232,-105 232,-235z"/>
      <path class="fil1" d="M3615 3124c0,-12 0,-28 -3,-40l-15 0c3,12 3,28 3,40 0,118 -93,210 -207,210 -15,0 -31,0 -43,-3l0 16c12,3 28,3 43,3 124,0 222,-99 222,-226z"/>
      <path class="fil1" d="M3609 3124c0,-12 -3,-28 -6,-40l-15 0c3,12 6,28 6,40 0,111 -90,204 -201,204 -15,0 -31,-3 -43,-6l0 15c12,3 28,6 43,6 118,0 216,-98 216,-219z"/>
      <path class="fil1" d="M3600 3124c0,-12 0,-28 -3,-40l-15 0c3,12 3,28 3,40 0,108 -87,195 -192,195 -15,0 -31,-3 -43,-6l0 18c12,3 28,3 43,3 114,0 207,-92 207,-210z"/>
      <path class="fil1" d="M3594 3124c0,-12 -3,-28 -6,-40l-16 0c3,12 6,28 6,40 0,105 -83,189 -185,189 -15,0 -31,-4 -43,-7l0 16c12,3 28,6 43,6 111,0 201,-93 201,-204z"/>
      <path class="fil1" d="M3585 3124c0,-12 0,-28 -3,-40l-16 0c3,12 3,28 3,40 0,99 -80,179 -176,179 -15,0 -31,-3 -43,-6l0 16c12,3 28,6 43,6 105,0 192,-87 192,-195z"/>
      <path class="fil1" d="M3578 3124c0,-12 -3,-28 -6,-40l-15 0c3,12 6,28 6,40 0,96 -77,173 -170,173 -15,0 -31,-3 -43,-6l0 15c12,3 28,7 43,7 102,0 185,-84 185,-189z"/>
      <path class="fil1" d="M3569 3124c0,-12 0,-28 -6,-40l-15 0c6,12 6,28 6,40 0,90 -71,164 -161,164 -15,0 -31,-3 -43,-6l0 15c12,3 28,6 43,6 96,0 176,-80 176,-179z"/>
      <path class="fil1" d="M3563 3124c0,-12 -3,-28 -6,-40l-16 0c3,12 7,28 7,40 0,87 -71,158 -155,158 -15,0 -31,-3 -43,-10l0 19c12,3 28,6 43,6 93,0 170,-77 170,-173z"/>
      <path class="fil1" d="M3554 3124c0,-12 0,-28 -6,-40l-16 0c3,12 6,28 6,40 0,84 -65,148 -145,148 -15,0 -31,-3 -43,-6l0 16c12,3 28,6 43,6 90,0 161,-74 161,-164z"/>
      <path class="fil1" d="M3548 3124c0,-12 -4,-28 -7,-40l-18 0c6,12 9,28 9,40 0,77 -62,142 -139,142 -15,0 -31,-3 -43,-9l0 15c12,7 28,10 43,10 84,0 155,-71 155,-158z"/>
      <path class="fil1" d="M3538 3124c0,-12 -3,-28 -6,-40l-15 0c3,12 6,28 6,40 0,74 -59,133 -130,133 -15,0 -31,-3 -43,-6l0 15c12,3 28,6 43,6 80,0 145,-64 145,-148z"/>
      <path class="fil1" d="M3532 3124c0,-12 -3,-28 -9,-40l-16 0c7,12 10,28 10,40 0,71 -56,127 -124,127 -15,0 -31,-3 -43,-9l0 15c12,6 28,9 43,9 77,0 139,-65 139,-142z"/>
      <path class="fil1" d="M3523 3124c0,-12 -3,-28 -6,-40l-16 0c3,12 6,28 6,40 0,65 -52,118 -114,118 -15,0 -31,-4 -43,-10l0 19c12,3 28,6 43,6 71,0 130,-59 130,-133z"/>
      <path class="fil1" d="M3517 3124c0,-12 -3,-28 -10,-40l-15 0c6,12 9,28 9,40 0,62 -49,111 -108,111 -15,0 -31,-6 -43,-9l0 16c12,6 28,9 43,9 68,0 124,-56 124,-127z"/>
      <path class="fil1" d="M3507 3124c0,-12 -3,-28 -6,-40l-18 0c6,12 9,28 9,40 0,56 -43,102 -99,102 -15,0 -31,-3 -43,-9l0 15c12,6 28,10 43,10 62,0 114,-53 114,-118z"/>
      <path class="fil1" d="M3501 3124c0,-12 -3,-28 -9,-40l-19 0c7,12 13,25 13,40 0,53 -43,93 -93,93 -15,0 -31,-3 -43,-9l0 18c12,3 28,9 43,9 59,0 108,-49 108,-111z"/>
      <path class="fil1" d="M3492 3124c0,-12 -3,-28 -9,-40l-19 0c9,12 13,25 13,40 0,50 -37,87 -84,87 -18,0 -31,-3 -43,-13l0 19c12,6 28,9 43,9 56,0 99,-46 99,-102z"/>
      <path class="fil1" d="M3486 3124c0,-15 -6,-28 -13,-40l-18 0c9,12 15,25 15,40 0,43 -37,77 -77,77 -18,0 -31,-3 -43,-12l0 19c12,6 28,9 43,9 50,0 93,-40 93,-93z"/>
      <path class="fil1" d="M3477 3124c0,-15 -4,-28 -13,-40l-18 0c9,9 15,25 15,40 0,40 -31,71 -68,71 -18,0 -31,-6 -43,-15l0 18c12,10 25,13 43,13 47,0 84,-37 84,-87z"/>
      <path class="fil1" d="M3470 3124c0,-15 -6,-28 -15,-40l-19 0c13,9 19,25 19,40 0,37 -28,62 -62,62 -18,0 -31,-6 -43,-15l0 18c12,9 25,12 43,12 40,0 77,-34 77,-77z"/>
      <path class="fil1" d="M3461 3124c0,-15 -6,-31 -15,-40l-22 0c12,9 22,25 22,40 0,31 -25,56 -53,56 -18,0 -31,-9 -43,-22l0 22c12,9 25,15 43,15 37,0 68,-31 68,-71zm-111 -31l0 0 0 -9 12 0c-3,3 -9,6 -12,9z"/>
      <path class="fil1" d="M3455 3124c0,-15 -6,-31 -19,-40l-27 0c18,6 31,22 31,40 0,28 -22,47 -47,47 -21,0 -34,-13 -43,-31l0 31c12,9 25,15 43,15 34,0 62,-25 62,-62zm-105 -12l0 0 0 -28 25 0c-13,3 -19,12 -25,28z"/>
      <path class="fil1" d="M3446 3124c0,-15 -10,-31 -22,-40l-62 0c-3,3 -9,6 -12,9l0 65c12,13 25,22 43,22 28,0 53,-25 53,-56zm-16 0l0 0c0,22 -15,40 -37,40 -21,0 -37,-18 -37,-40 0,-18 16,-37 37,-37 22,0 37,19 37,37z"/>
      <path class="fil1" d="M3440 3124c0,-18 -13,-34 -31,-40l-34 0c-13,3 -19,12 -25,28l0 28c9,18 22,31 43,31 25,0 47,-19 47,-47zm-16 0l0 0c0,19 -15,31 -31,31 -18,0 -31,-12 -31,-31 0,-15 13,-31 31,-31 16,0 31,16 31,31z"/>
      <path class="fil1" d="M3430 3124c0,-18 -15,-37 -37,-37 -21,0 -37,19 -37,37 0,22 16,40 37,40 22,0 37,-18 37,-40zm-15 0l0 0c0,16 -9,25 -22,25 -15,0 -24,-9 -24,-25 0,-12 9,-21 24,-21 13,0 22,9 22,21z"/>
      <path class="fil1" d="M3424 3124c0,-15 -15,-31 -31,-31 -18,0 -31,16 -31,31 0,19 13,31 31,31 16,0 31,-12 31,-31zm-15 0l0 0c0,10 -10,16 -16,16 -9,0 -15,-6 -15,-16 0,-6 6,-15 15,-15 6,0 16,9 16,15z"/>
      <path class="fil1" d="M3415 3124c0,-12 -9,-21 -22,-21 -15,0 -24,9 -24,21 0,16 9,25 24,25 13,0 22,-9 22,-25z"/>
      <path class="fil1" d="M3409 3124c0,-6 -10,-15 -16,-15 -9,0 -15,9 -15,15 0,10 6,16 15,16 6,0 16,-6 16,-16z"/>
      <path class="fil1" d="M3399 3124c0,-3 -3,-6 -6,-6 -6,0 -9,3 -9,6 0,6 3,10 9,10 3,0 6,-4 6,-10z"/>
     </g>
     <g>
      <path class="fil0" d="M5814 9191c0,-297 -312,-291 -538,-291l-836 0 0 -725 1154 0c105,0 145,-93 155,-173 9,-71 -68,-188 -145,-188l-1164 0 0 -726 1451 0c466,0 772,368 772,812 0,692 -677,713 -627,713 136,10 287,34 444,71 124,25 164,198 164,216l0 1050 -830 0 0 -759z"/>
      <path class="fil0" d="M2269 7088l1986 0 0 723 -1986 0 0 -723zm10 2130l0 0 1960 0 0 723 -1960 0 0 -723zm0 -1043l0 0 1960 0 0 725 -1960 0 0 -725z"/>
      <polygon class="fil0" points="2094,8163 2094,8888 862,8900 862,9950 28,9950 28,7094 2100,7094 2100,7811 828,7811 828,8163 "/>
     </g>
    </g>
   </g>
  </g>
 </g>
</svg>